<svg version="1.2" xmlns="http://www.w3.org/2000/svg" viewBox="0 0 3000 2058" width="800" height="549">
	<title>26195889_payment_taxes_17-ai</title>
	<defs>
		<linearGradient id="g1" x1="399.7" y1="1813.5" x2="405.7" y2="1342.7" gradientUnits="userSpaceOnUse">
			<stop offset="0" stop-color="#49b9c5"/>
			<stop offset="1" stop-color="#97d3de"/>
		</linearGradient>
		<linearGradient id="g2" x1="407.1" y1="1934.1" x2="407.1" y2="1934.1" gradientUnits="userSpaceOnUse">
			<stop offset="0" stop-color="#96d3de"/>
			<stop offset="1" stop-color="#96d3de"/>
		</linearGradient>
		<linearGradient id="g3" x1="2549" y1="1708.8" x2="2541.7" y2="1137" gradientUnits="userSpaceOnUse">
			<stop offset="0" stop-color="#49b9c5"/>
			<stop offset="1" stop-color="#97d3de"/>
		</linearGradient>
		<linearGradient id="g4" x1="2540" y1="1855.4" x2="2540" y2="1855.4" gradientUnits="userSpaceOnUse">
			<stop offset="0" stop-color="#96d3de"/>
			<stop offset="1" stop-color="#96d3de"/>
		</linearGradient>
		<linearGradient id="g5" x1="976.6" y1="1780.9" x2="976.6" y2="1780.9" gradientUnits="userSpaceOnUse">
			<stop offset="0" stop-color="#def1f7"/>
			<stop offset="1" stop-color="#def1f7"/>
		</linearGradient>
		<linearGradient id="g6" x1="797.2" y1="1082.3" x2="792.5" y2="1076.8" gradientUnits="userSpaceOnUse">
			<stop offset="0" stop-color="#ff8762"/>
			<stop offset="1" stop-color="#ff5c47"/>
		</linearGradient>
		<linearGradient id="g7" x1="1841" y1="1272.3" x2="1847.2" y2="1270.7" gradientUnits="userSpaceOnUse">
			<stop offset="0" stop-color="#ff8762"/>
			<stop offset="1" stop-color="#ff5c47"/>
		</linearGradient>
	</defs>
	<style>
		.s0 { fill: #95c7cf } 
		.s1 { fill: #8fc7d9 } 
		.s2 { fill: #def1f7 } 
		.s3 { fill: #b9e1ed } 
		.s4 { fill: url(#g1) } 
		.s5 { fill: #dedede } 
		.s6 { fill: url(#g2) } 
		.s7 { fill: #b1dbe8 } 
		.s8 { fill: url(#g3) } 
		.s9 { fill: url(#g4) } 
		.s10 { fill: #286578 } 
		.s11 { fill: #34839c } 
		.s12 { fill: #3f91ab } 
		.s13 { fill: #52adc9 } 
		.s14 { fill: #404040 } 
		.s15 { fill: #737373 } 
		.s16 { fill: url(#g5) } 
		.s17 { fill: #ffffff } 
		.s18 { fill: #3b94b0 } 
		.s19 { fill: #c8cadb } 
		.s20 { fill: #ff414d } 
		.s21 { fill: #7fcae6 } 
		.s22 { fill: #bfeeff } 
		.s23 { fill: #5aabc4 } 
		.s24 { fill: #ebf5ff } 
		.s25 { fill: #2b1710 } 
		.s26 { fill: #ff8762 } 
		.s27 { fill: #eb3c47 } 
		.s28 { fill: url(#g6) } 
		.s29 { fill: #e0b3a8 } 
		.s30 { fill: #ff7e57 } 
		.s31 { fill: #02202b } 
		.s32 { fill: #d4d4d4 } 
		.s33 { fill: #002d40 } 
		.s34 { fill: #80dbe3 } 
		.s35 { fill: #63c4e3 } 
		.s36 { fill: #f9fdff } 
		.s37 { fill: #19a6b7 } 
		.s38 { fill: #649db0 } 
		.s39 { fill: #693e2f } 
		.s40 { fill: url(#g7) } 
		.s41 { fill: #521a14 } 
		.s42 { fill: #f7d5cd } 
		.s43 { fill: #bfbfbf } 
	</style>
	<g id="Layer 1">
		<g id="&lt;Group&gt;">
			<g id="&lt;Group&gt;">
				<g id="&lt;Group&gt;">
					<g id="&lt;Group&gt;">
						<path id="&lt;Compound Path&gt;" class="s0" d="m988.3 534.4c-4.8 0-9.7-0.3-14.4-0.7-1.3-0.1-2.3-1.3-2.2-2.6 0.1-1.3 1.3-2.2 2.6-2.1 9.3 0.8 19 0.8 28.3 0 1.3-0.1 2.5 0.8 2.6 2.1 0.1 1.3-0.9 2.5-2.2 2.6-4.8 0.4-9.8 0.7-14.7 0.7zm-42.5-5.9q-0.3 0-0.6-0.1c-9.4-2.6-18.5-6.2-27.2-10.5-1.2-0.6-1.7-2-1.1-3.2 0.6-1.2 2-1.6 3.2-1.1 8.4 4.2 17.3 7.7 26.4 10.2 1.2 0.4 2 1.7 1.6 3-0.3 1-1.2 1.7-2.3 1.7zm85.3-0.1c-1.1 0-2-0.6-2.3-1.7-0.4-1.2 0.4-2.6 1.6-2.9 9.1-2.6 18-6 26.4-10.3 1.2-0.5 2.6-0.1 3.2 1.1 0.6 1.2 0.1 2.6-1.1 3.2-8.7 4.3-17.8 7.9-27.2 10.5q-0.3 0.1-0.6 0.1zm-136.5-25.4c-0.5 0-1-0.1-1.4-0.5-7.8-5.8-15.1-12.4-21.6-19.6-0.9-1-0.8-2.5 0.1-3.4 1-0.8 2.5-0.8 3.4 0.2 6.3 7 13.4 13.4 20.9 19 1.1 0.8 1.3 2.3 0.5 3.4-0.5 0.6-1.2 0.9-1.9 0.9zm187.7-0.1c-0.7 0-1.5-0.3-1.9-1-0.8-1-0.6-2.5 0.4-3.3 7.6-5.7 14.6-12.1 20.9-19.1 0.9-0.9 2.4-1 3.4-0.1 1 0.9 1 2.4 0.2 3.3-6.6 7.2-13.9 13.8-21.6 19.7-0.4 0.3-0.9 0.5-1.4 0.5zm-226.3-42.1c-0.8 0-1.6-0.4-2-1.2-5.2-8.2-9.6-17-13.1-26.1-0.5-1.2 0.1-2.5 1.3-3 1.3-0.5 2.6 0.1 3.1 1.3 3.4 8.8 7.7 17.3 12.7 25.3 0.7 1.1 0.3 2.6-0.8 3.3q-0.6 0.4-1.2 0.4zm264.8-0.2q-0.6 0-1.2-0.4c-1.1-0.7-1.5-2.1-0.8-3.3 5-8 9.2-16.5 12.6-25.3 0.5-1.2 1.9-1.8 3.1-1.3 1.2 0.4 1.8 1.8 1.4 3-3.5 9.1-7.9 17.9-13.1 26.1-0.4 0.8-1.2 1.2-2 1.2zm-285.6-53.2c-1.1 0-2.1-0.8-2.3-1.9-1.8-9.5-2.7-19.3-2.7-29.1 0-1.3 1-2.3 2.4-2.3q0 0 0 0c1.3 0 2.3 1 2.3 2.3 0 9.5 0.9 19 2.6 28.2 0.3 1.3-0.6 2.5-1.8 2.8q-0.3 0-0.5 0zm306.3-0.2q-0.2 0-0.4 0c-1.3-0.3-2.2-1.5-1.9-2.8 1.7-9.2 2.6-18.7 2.6-28.2 0-1.3 1-2.6 2.3-2.6q0 0 0 0c1.3 0 2.4 0.8 2.4 2.1 0 0 0 0.3 0 0.3q0 15-2.7 29.3c-0.2 1.1-1.2 1.9-2.3 1.9zm-306.4-57q-0.2 0-0.4 0c-1.3-0.3-2.1-1.5-1.9-2.8 1.8-9.6 4.4-19 7.9-28.1 0.5-1.2 1.9-1.8 3.1-1.3 1.2 0.4 1.8 1.8 1.4 3-3.4 8.8-6 18-7.7 27.3-0.2 1.1-1.2 1.9-2.4 1.9zm306.3-0.7c-1.1 0-2.1-0.8-2.3-1.9-1.8-9.3-4.4-18.4-7.8-27.2-0.5-1.2 0.1-2.6 1.3-3.1 1.2-0.5 2.6 0.1 3.1 1.4 3.5 9 6.2 18.5 8 28 0.3 1.3-0.6 2.5-1.8 2.8q-0.3 0-0.5 0zm-285.7-52.7q-0.6 0-1.2-0.4c-1.1-0.6-1.5-2.1-0.8-3.2 5.1-8.3 11-16.1 17.6-23.3 0.8-1 2.3-1.1 3.3-0.2 1 0.9 1.1 2.4 0.2 3.4-6.4 7-12.1 14.6-17.1 22.6-0.4 0.7-1.2 1.1-2 1.1zm264.9-0.6c-0.8 0-1.6-0.4-2-1.1-5-8-10.8-15.6-17.2-22.5-0.8-1-0.8-2.5 0.2-3.4 1-0.9 2.5-0.8 3.3 0.2 6.6 7.1 12.6 15 17.7 23.2 0.7 1.1 0.4 2.6-0.8 3.3q-0.6 0.3-1.2 0.3zm-226.4-41.8c-0.7 0-1.4-0.3-1.9-0.9-0.8-1-0.6-2.5 0.5-3.3 7.7-5.9 16.1-11.1 24.7-15.5 1.2-0.5 2.6-0.1 3.2 1.1 0.6 1.2 0.1 2.6-1 3.2-8.4 4.2-16.5 9.2-24 15-0.5 0.3-1 0.4-1.5 0.4zm51.2-25.6c-1 0-2-0.7-2.3-1.7-0.4-1.3 0.4-2.6 1.6-3 9.4-2.6 19-4.4 28.7-5.3 1.3-0.2 2.5 0.8 2.6 2.1 0.1 1.3-0.8 2.5-2.2 2.6-9.4 0.9-18.7 2.6-27.8 5.2q-0.3 0.1-0.6 0.1z"/>
					</g>
				</g>
			</g>
			<g id="&lt;Group&gt;">
				<g id="&lt;Group&gt;">
					<g id="&lt;Group&gt;">
						<path id="&lt;Compound Path&gt;" class="s0" d="m2039.9 543.2c-4.8 0-9.7-0.3-14.5-0.7-1.3-0.1-2.2-1.3-2.1-2.6 0.1-1.3 1.3-2.2 2.6-2.1 9.3 0.8 18.9 0.8 28.3 0 1.3-0.1 2.4 0.8 2.5 2.1 0.2 1.3-0.8 2.5-2.1 2.6-4.8 0.4-9.8 0.7-14.7 0.7zm-42.5-5.9q-0.3 0-0.6-0.1c-9.4-2.6-18.6-6.2-27.3-10.5-1.1-0.6-1.6-2-1-3.2 0.5-1.2 2-1.6 3.1-1.1 8.5 4.2 17.4 7.7 26.4 10.2 1.3 0.4 2 1.7 1.7 3-0.3 1-1.3 1.7-2.3 1.7zm85.2-0.1c-1 0-1.9-0.6-2.2-1.7-0.4-1.2 0.3-2.6 1.6-2.9 9.1-2.6 17.9-6 26.4-10.3 1.1-0.5 2.6-0.1 3.1 1.1 0.6 1.2 0.2 2.6-1 3.2-8.7 4.3-17.9 7.9-27.2 10.5q-0.3 0.1-0.7 0.1zm-136.5-25.4c-0.4 0-1-0.2-1.4-0.5-7.7-5.8-15-12.4-21.6-19.6-0.8-1-0.8-2.5 0.2-3.4 1-0.8 2.5-0.8 3.3 0.2 6.4 7 13.5 13.4 21 19 1 0.8 1.2 2.3 0.4 3.4-0.4 0.6-1.1 0.9-1.9 0.9zm187.7-0.1c-0.7 0-1.4-0.3-1.8-1-0.8-1-0.6-2.5 0.4-3.3 7.5-5.7 14.6-12.1 20.9-19.1 0.9-0.9 2.4-1 3.4-0.1 0.9 0.9 1 2.4 0.1 3.3-6.5 7.2-13.8 13.8-21.5 19.7-0.5 0.3-1 0.5-1.5 0.5zm-226.3-42.1c-0.8 0-1.5-0.4-2-1.2-5.1-8.2-9.5-17-13-26.1-0.5-1.2 0.1-2.5 1.3-3 1.2-0.5 2.6 0.1 3.1 1.3 3.4 8.8 7.7 17.3 12.6 25.3 0.7 1.1 0.4 2.6-0.7 3.3q-0.6 0.4-1.3 0.4zm264.9-0.2q-0.7 0-1.3-0.4c-1.1-0.7-1.4-2.1-0.7-3.3 5-8 9.2-16.5 12.6-25.3 0.5-1.2 1.9-1.8 3.1-1.3 1.2 0.4 1.8 1.8 1.3 3-3.5 9.1-7.9 17.9-13 26.1-0.4 0.8-1.2 1.2-2 1.2zm-285.6-53.2c-1.1 0-2.1-0.8-2.3-1.9-1.8-9.5-2.7-19.3-2.7-29.1 0-1.3 1-2.3 2.3-2.3q0 0 0 0c1.3 0 2.4 1 2.4 2.3 0 9.5 0.9 19 2.6 28.2 0.3 1.3-0.6 2.5-1.9 2.8q-0.2 0-0.4 0zm306.3-0.2q-0.2 0-0.5 0c-1.3-0.3-2.1-1.5-1.9-2.8 1.8-9.2 2.6-18.7 2.6-28.2 0-1.3 1.1-2.6 2.4-2.6q0 0 0 0c1.3 0 2.4 0.8 2.4 2.1 0 0 0 0.3 0 0.3q0 15-2.7 29.3c-0.2 1.1-1.2 1.9-2.3 1.9zm-306.4-57q-0.2 0-0.4 0c-1.3-0.3-2.2-1.5-1.9-2.8 1.7-9.6 4.4-19 7.9-28.1 0.5-1.2 1.8-1.8 3.1-1.3 1.2 0.4 1.8 1.8 1.3 3-3.4 8.8-6 18-7.7 27.3-0.2 1.1-1.2 1.9-2.3 1.9zm306.3-0.7c-1.1 0-2.1-0.8-2.3-1.9-1.8-9.3-4.4-18.4-7.9-27.2-0.4-1.2 0.2-2.6 1.4-3.1 1.2-0.5 2.6 0.1 3.1 1.4 3.5 9 6.2 18.4 8 28 0.3 1.3-0.6 2.5-1.9 2.8q-0.2 0-0.4 0zm-285.7-52.7q-0.7 0-1.3-0.4c-1.1-0.6-1.4-2.1-0.7-3.2 5.1-8.3 11-16.1 17.5-23.3 0.9-1 2.4-1.1 3.4-0.2 1 0.9 1 2.4 0.1 3.4-6.3 6.9-12 14.6-17 22.6-0.4 0.7-1.2 1.1-2 1.1zm264.9-0.6c-0.8 0-1.6-0.4-2.1-1.1-4.9-8-10.7-15.6-17.1-22.5-0.9-1-0.8-2.5 0.2-3.4 0.9-0.9 2.4-0.8 3.3 0.2 6.6 7.1 12.5 15 17.7 23.2 0.7 1.1 0.3 2.6-0.8 3.3q-0.6 0.3-1.2 0.3zm-226.4-41.8c-0.7 0-1.4-0.3-1.9-0.9-0.8-1-0.6-2.5 0.5-3.3 7.7-5.9 16-11.1 24.7-15.5 1.2-0.5 2.6-0.1 3.2 1.1 0.6 1.2 0.1 2.6-1.1 3.2-8.4 4.2-16.5 9.2-24 14.9-0.4 0.4-0.9 0.5-1.4 0.5zm51.2-25.6c-1.1 0-2-0.7-2.3-1.7-0.4-1.3 0.3-2.6 1.6-3 9.3-2.6 19-4.4 28.7-5.3 1.3-0.2 2.4 0.8 2.6 2.1 0.1 1.3-0.9 2.5-2.2 2.6-9.4 0.9-18.7 2.6-27.8 5.2q-0.3 0.1-0.6 0.1z"/>
					</g>
				</g>
			</g>
			<g id="&lt;Group&gt;">
				<g id="&lt;Group&gt;">
					<g id="&lt;Group&gt;">
						<g id="&lt;Group&gt;">
							<g id="&lt;Group&gt;">
								<path id="&lt;Compound Path&gt;" class="s0" d="m2196.3 699.9v-4.3c-2.5-0.1-5.1-0.9-6.6-1.9l1-3c1.6 1.1 3.9 1.9 6.3 1.9 3.1 0 5.1-1.8 5.1-4.2 0-2.4-1.6-3.9-4.9-5.2-4.4-1.7-7.1-3.7-7.1-7.5 0-3.6 2.5-6.3 6.5-7v-4.4h2.7v4.2c2.6 0.1 4.4 0.8 5.7 1.6l-1.1 2.8c-0.9-0.5-2.7-1.5-5.5-1.5-3.3 0-4.6 2-4.6 3.8 0 2.2 1.6 3.4 5.4 4.9 4.5 1.8 6.7 4.1 6.7 8 0 3.4-2.4 6.6-6.8 7.3v4.5z"/>
							</g>
						</g>
					</g>
				</g>
				<g id="&lt;Group&gt;">
					<g id="&lt;Group&gt;">
						<g id="&lt;Group&gt;">
							<path id="&lt;Compound Path&gt;" fill-rule="evenodd" class="s0" d="m2197.7 708.3c-14.6 0-26.5-11.9-26.5-26.5 0-14.6 11.9-26.5 26.5-26.5 14.6 0 26.5 11.9 26.5 26.5 0 14.6-11.9 26.5-26.5 26.5zm0-51.8c-14 0-25.3 11.3-25.3 25.3 0 14 11.3 25.4 25.3 25.4 14 0 25.4-11.4 25.4-25.4 0-14-11.4-25.3-25.4-25.3z"/>
						</g>
					</g>
				</g>
			</g>
			<g id="&lt;Group&gt;">
				<g id="&lt;Group&gt;">
					<g id="&lt;Group&gt;">
						<g id="&lt;Group&gt;">
							<path id="&lt;Compound Path&gt;" fill-rule="evenodd" class="s0" d="m1385 258.3h-100.6v-54.2h100.6zm-99.4-1.2h98.2v-51.8h-98.2z"/>
						</g>
					</g>
				</g>
				<g id="&lt;Group&gt;">
					<g id="&lt;Group&gt;">
						<g id="&lt;Group&gt;">
							<path id="&lt;Compound Path&gt;" fill-rule="evenodd" class="s0" d="m1366.5 250.8h-63.5v-0.6c0-5.7-4.7-10.4-10.5-10.4h-0.5v-17.1h0.5c5.8 0 10.5-4.7 10.5-10.5v-0.6h63.5v0.6c0 5.8 4.7 10.5 10.4 10.5h0.6v17.1h-0.6c-5.7 0-10.4 4.7-10.4 10.4zm-62.4-1.2h61.2c0.3-5.9 5.1-10.7 11-11v-14.8c-5.9-0.3-10.7-5-11-11h-61.2c-0.3 6-5 10.7-11 11v14.8c6 0.3 10.7 5.1 11 11z"/>
						</g>
					</g>
				</g>
				<g id="&lt;Group&gt;">
					<g id="&lt;Group&gt;">
						<g id="&lt;Group&gt;">
							<path id="&lt;Compound Path&gt;" fill-rule="evenodd" class="s0" d="m1341.9 240.1h-14.3c-4.9 0-8.9-4-8.9-8.9 0-4.9 4-8.9 8.9-8.9h14.3c4.9 0 8.9 4 8.9 8.9 0 4.9-4 8.9-8.9 8.9zm-14.3-16.6c-4.3 0-7.8 3.5-7.8 7.7 0 4.3 3.5 7.8 7.8 7.8h14.3c4.2 0 7.7-3.5 7.7-7.8 0-4.2-3.5-7.7-7.7-7.7z"/>
						</g>
					</g>
				</g>
				<g id="&lt;Group&gt;">
					<g id="&lt;Group&gt;">
						<g id="&lt;Group&gt;">
							<path id="&lt;Compound Path&gt;" fill-rule="evenodd" class="s0" d="m1305.9 237.4c-3.4 0-6.2-2.8-6.2-6.2 0-3.4 2.8-6.2 6.2-6.2 3.4 0 6.2 2.8 6.2 6.2 0 3.4-2.8 6.2-6.2 6.2zm0-11.2c-2.8 0-5 2.3-5 5 0 2.8 2.2 5 5 5 2.7 0 5-2.2 5-5 0-2.7-2.3-5-5-5z"/>
						</g>
					</g>
				</g>
				<g id="&lt;Group&gt;">
					<g id="&lt;Group&gt;">
						<g id="&lt;Group&gt;">
							<path id="&lt;Compound Path&gt;" fill-rule="evenodd" class="s0" d="m1363.1 237.4c-3.4 0-6.2-2.8-6.2-6.2 0-3.4 2.8-6.2 6.2-6.2 3.4 0 6.2 2.8 6.2 6.2 0 3.4-2.8 6.2-6.2 6.2zm0-11.2c-2.7 0-5 2.3-5 5 0 2.8 2.3 5 5 5 2.8 0 5-2.2 5-5 0-2.7-2.2-5-5-5z"/>
						</g>
					</g>
				</g>
			</g>
			<g id="&lt;Group&gt;">
				<g id="&lt;Group&gt;">
					<g id="&lt;Group&gt;">
						<g id="&lt;Group&gt;">
							<path id="&lt;Compound Path&gt;" fill-rule="evenodd" class="s0" d="m2287.4 1015.3h-53.6v-77.3h-7.5c-1 0-1.7-0.5-2-1.4-0.3-0.9 0.1-1.8 0.8-2.3l35.8-23.5 35.2 23.5c0.8 0.5 1.1 1.4 0.8 2.3-0.2 0.9-1 1.4-1.9 1.4h-7.6zm-52.5-1.1h51.3v-77.3h8.8c0.4 0 0.7-0.3 0.8-0.6 0.1-0.3 0-0.7-0.4-0.9l-34.5-23.1-35.1 23.1c-0.4 0.2-0.4 0.6-0.4 0.9 0.1 0.3 0.4 0.6 0.9 0.6h8.6z"/>
						</g>
					</g>
				</g>
				<g id="&lt;Group&gt;">
					<g id="&lt;Group&gt;">
						<g id="&lt;Group&gt;">
							<g id="&lt;Group&gt;">
								<path id="&lt;Compound Path&gt;" fill-rule="evenodd" class="s0" d="m2263.1 990.7h-5.3v-6.7c-3.7-0.1-7.5-1.3-9.8-3l-0.4-0.2 2-5.6 0.6 0.5c2.6 1.7 6 2.7 9.2 2.7 4.2 0 7.2-2.4 7.2-5.9 0-3.1-2-5.2-7.1-7.2-5.8-2.3-11.2-5.4-11.2-12 0-5.6 3.9-9.9 9.9-11.1v-6.7h5.3v6.4c3.2 0.2 5.9 1 8.3 2.4l0.4 0.2-2.1 5.5-0.6-0.4c-1.1-0.6-3.7-2.1-8-2.1-4.7 0-6.3 2.7-6.3 5 0 2.9 1.8 4.5 7.7 7 7.5 3 10.6 6.8 10.6 12.6 0 4.8-3.2 10.3-10.4 11.7zm-4.1-1.2h2.9v-6.8l0.5-0.1c6.9-1.1 9.9-6.1 9.9-10.6 0-5.3-2.8-8.6-9.8-11.5-5.8-2.3-8.5-4.2-8.5-8 0-3.1 2.3-6.2 7.5-6.2 3.9 0 6.6 1.1 8 1.9l1.2-3.2c-2.2-1.2-4.8-1.9-7.8-2h-0.6v-6.4h-2.9v6.6l-0.5 0.1c-5.7 0.9-9.4 4.8-9.4 10 0 5.6 4.2 8.4 10.5 10.8 5.5 2.2 7.8 4.7 7.8 8.4 0 4.1-3.5 7-8.4 7-3.2 0-6.5-0.9-9.2-2.5l-1.2 3.3c2.3 1.5 6 2.5 9.4 2.5h0.6z"/>
							</g>
						</g>
					</g>
				</g>
			</g>
			<g id="&lt;Group&gt;">
				<g id="&lt;Group&gt;">
					<g id="&lt;Group&gt;">
						<path id="&lt;Compound Path&gt;" fill-rule="evenodd" class="s0" d="m1097.2 185.2l-0.3-0.6c-3.2-7.4-9.9-13-17.7-15l-0.6-0.1 4.7-18.2 0.5 0.1c13.4 3.4 24.8 13 30.3 25.6l0.3 0.6zm-17.2-16.6c7.8 2.1 14.4 7.7 17.8 15l15-6.6c-5.4-11.9-16.1-20.9-28.7-24.3z"/>
					</g>
				</g>
				<g id="&lt;Group&gt;">
					<g id="&lt;Group&gt;">
						<g id="&lt;Group&gt;">
							<path id="&lt;Compound Path&gt;" fill-rule="evenodd" class="s0" d="m1062.9 249.4c-24.8 0-45.1-20.3-45.1-45.1 0-24.9 20.3-45.1 45.1-45.1 3.6 0 7.3 0.4 11 1.4l0.6 0.1-4.7 18.2-0.5-0.1q-3.3-0.8-6.4-0.8c-14.5 0-26.3 11.8-26.3 26.3 0 14.5 11.8 26.3 26.3 26.3 4.1 0 8-1 11.7-2.8l0.6-0.3 8.6 16.7-0.6 0.3c-6.4 3.2-13.2 4.9-20.3 4.9zm0-89.1c-24.2 0-43.9 19.7-43.9 44 0 24.2 19.7 43.9 43.9 43.9 6.7 0 13.2-1.5 19.3-4.5l-7.6-14.6c-3.7 1.8-7.6 2.6-11.7 2.6-15.1 0-27.4-12.3-27.4-27.4 0-15.2 12.3-27.5 27.4-27.5q3 0 6.1 0.7l4.1-15.9c-3.5-0.8-6.9-1.3-10.2-1.3z"/>
						</g>
					</g>
					<g id="&lt;Group&gt;">
						<g id="&lt;Group&gt;">
							<path id="&lt;Compound Path&gt;" fill-rule="evenodd" class="s0" d="m1086.7 242.5l-10.2-15.7 0.5-0.3c7.7-4.9 12.2-13.2 12.2-22.2 0-3.7-0.7-7.2-2.1-10.5l-0.3-0.6 17.2-7.6 0.2 0.6c2.6 5.7 3.8 11.8 3.8 18.1 0 15.4-7.7 29.6-20.8 37.9zm-8.6-15.4l9 13.8c12.4-8.2 19.8-21.8 19.8-36.7 0-5.9-1.2-11.6-3.5-17l-15 6.6c1.3 3.3 2 6.8 2 10.4 0 9.3-4.6 17.8-12.3 22.9z"/>
						</g>
					</g>
				</g>
			</g>
			<g id="&lt;Group&gt;">
				<g id="&lt;Group&gt;">
					<g id="&lt;Group&gt;">
						<g id="&lt;Group&gt;">
							<path id="&lt;Compound Path&gt;" fill-rule="evenodd" class="s0" d="m2122.7 264h-12.3v-39.2h12.3zm-11.1-1.2h10v-36.8h-10z"/>
						</g>
					</g>
				</g>
				<g id="&lt;Group&gt;">
					<g id="&lt;Group&gt;">
						<g id="&lt;Group&gt;">
							<path id="&lt;Compound Path&gt;" fill-rule="evenodd" class="s0" d="m2103.8 264h-12.3v-53h12.3zm-11.1-1.1h9.9v-50.6h-9.9z"/>
						</g>
					</g>
				</g>
				<g id="&lt;Group&gt;">
					<g id="&lt;Group&gt;">
						<g id="&lt;Group&gt;">
							<path id="&lt;Compound Path&gt;" fill-rule="evenodd" class="s0" d="m2084.8 264h-12.3v-67.3h12.3zm-11.1-1.2h9.9v-65h-9.9z"/>
						</g>
					</g>
				</g>
				<g id="&lt;Group&gt;">
					<g id="&lt;Group&gt;">
						<g id="&lt;Group&gt;">
							<path id="&lt;Compound Path&gt;" fill-rule="evenodd" class="s0" d="m2141.7 264h-12.3v-53.3h12.3zm-11.1-1.1h9.9v-50.9h-9.9z"/>
						</g>
					</g>
				</g>
				<g id="&lt;Group&gt;">
					<g id="&lt;Group&gt;">
						<g id="&lt;Group&gt;">
							<path id="&lt;Compound Path&gt;" fill-rule="evenodd" class="s0" d="m2160.7 264h-12.4v-64.7h12.4zm-11.2-1.2h10v-62.3h-10z"/>
						</g>
					</g>
				</g>
				<g id="&lt;Group&gt;">
					<g id="&lt;Group&gt;">
						<path id="&lt;Path&gt;" class="s0" d="m2119 201.4q-0.1 0-0.2 0l-42.6-12.1c-0.3-0.1-0.5-0.5-0.4-0.8 0.1-0.3 0.5-0.5 0.8-0.4l42.3 12.1 42.1-22.8c0.3-0.1 0.6 0 0.8 0.3 0.1 0.3 0 0.6-0.3 0.8l-42.2 22.9q-0.2 0-0.3 0z"/>
					</g>
				</g>
				<g id="&lt;Group&gt;">
					<g id="&lt;Group&gt;">
						<path id="&lt;Path&gt;" class="s0" d="m2159.6 186.8q-0.1 0-0.2 0c-0.3-0.2-0.5-0.5-0.4-0.8l3.8-9.2h-10.1c-0.4 0-0.6-0.2-0.6-0.6 0-0.3 0.2-0.5 0.6-0.5h11c0.2 0 0.4 0.1 0.5 0.2 0.1 0.2 0.1 0.4 0.1 0.6l-4.2 9.9c-0.1 0.3-0.3 0.4-0.5 0.4z"/>
					</g>
				</g>
			</g>
			<g id="&lt;Group&gt;">
				<g id="&lt;Group&gt;">
					<g id="&lt;Group&gt;">
						<g id="&lt;Group&gt;">
							<path id="&lt;Compound Path&gt;" fill-rule="evenodd" class="s0" d="m1741.9 224.4c-20.8 0-37.7-16.9-37.7-37.7 0-20.8 16.9-37.7 37.7-37.7 20.7 0 37.7 16.9 37.7 37.7 0 20.8-17 37.7-37.7 37.7zm0-74.2c-20.2 0-36.5 16.4-36.5 36.5 0 20.1 16.3 36.5 36.5 36.5 20.1 0 36.5-16.4 36.5-36.5 0-20.1-16.4-36.5-36.5-36.5z"/>
						</g>
					</g>
				</g>
				<g id="&lt;Group&gt;">
					<g id="&lt;Group&gt;">
						<g id="&lt;Group&gt;">
							<path id="&lt;Compound Path&gt;" fill-rule="evenodd" class="s0" d="m1741.9 208.9c-12.3 0-22.3-9.9-22.3-22.2 0-12.3 10-22.2 22.3-22.2 12.2 0 22.2 9.9 22.2 22.2 0 12.3-10 22.2-22.2 22.2zm0-43.2c-11.6 0-21.1 9.4-21.1 21 0 11.6 9.5 21 21.1 21 11.6 0 21-9.4 21-21 0-11.6-9.4-21-21-21z"/>
						</g>
					</g>
				</g>
				<g id="&lt;Group&gt;">
					<g id="&lt;Group&gt;">
						<g id="&lt;Group&gt;">
							<path id="&lt;Compound Path&gt;" fill-rule="evenodd" class="s0" d="m1741.9 197c-5.7 0-10.3-4.6-10.3-10.3 0-5.6 4.6-10.2 10.3-10.2 5.6 0 10.2 4.6 10.2 10.2 0 5.7-4.6 10.3-10.2 10.3zm0-19.4c-5 0-9.1 4.1-9.1 9.1 0 5 4.1 9.1 9.1 9.1 5 0 9-4.1 9-9.1 0-5-4-9.1-9-9.1z"/>
						</g>
					</g>
				</g>
				<g id="&lt;Group&gt;">
					<g id="&lt;Group&gt;">
						<path id="&lt;Path&gt;" class="s0" d="m1741.9 186.7q-0.2 0-0.3-0.1l-58.7-31.2c-0.3-0.2-0.4-0.5-0.3-0.8 0.2-0.3 0.5-0.4 0.8-0.3l58.7 31.3c0.3 0.1 0.4 0.5 0.3 0.8-0.1 0.2-0.3 0.3-0.5 0.3z"/>
					</g>
				</g>
				<g id="&lt;Group&gt;">
					<g id="&lt;Group&gt;">
						<path id="&lt;Path&gt;" class="s0" d="m1696.5 160.4c-0.2 0-0.5-0.1-0.6-0.3l-4-8.2-9.5-6.9 3.4 8.6c0.1 0.3-0.1 0.6-0.4 0.7-0.3 0.2-0.6 0-0.7-0.3l-4.1-10.5c-0.1-0.3 0-0.5 0.2-0.7 0.2-0.2 0.5-0.2 0.7 0l11.2 8.2q0.1 0.1 0.2 0.2l4.1 8.4c0.1 0.2 0 0.6-0.3 0.7q-0.1 0.1-0.2 0.1z"/>
					</g>
				</g>
				<g id="&lt;Group&gt;">
					<g id="&lt;Group&gt;">
						<path id="&lt;Path&gt;" class="s0" d="m1686.9 164.9q-0.1 0-0.2 0l-13.3-4.1c-0.3 0-0.4-0.3-0.4-0.5 0-0.3 0.2-0.5 0.4-0.6l10.1-2.4c0.3-0.1 0.6 0.1 0.7 0.4 0.1 0.3-0.1 0.6-0.5 0.7l-7.9 1.9 11.1 3.4 8.2-1.1c0.3 0 0.6 0.2 0.7 0.5 0 0.3-0.2 0.6-0.5 0.7l-8.3 1.1q-0.1 0-0.1 0z"/>
					</g>
				</g>
			</g>
			<g id="&lt;Group&gt;">
				<g id="&lt;Group&gt;">
					<g id="&lt;Group&gt;">
						<path id="&lt;Path&gt;" class="s1" d="m750.4 878.5l138.6-149.2-114.8 91.8z"/>
					</g>
					<g id="&lt;Group&gt;">
						<path id="&lt;Path&gt;" class="s2" d="m889 729.3l-114.8 91.8 58.1 75z"/>
					</g>
					<g id="&lt;Group&gt;">
						<path id="&lt;Path&gt;" class="s2" d="m670 798.2l78.1 13.7 140.9-82.6z"/>
					</g>
					<g id="&lt;Group&gt;">
						<path id="&lt;Path&gt;" class="s3" d="m748.1 811.9l2.3 66.6 23.8-57.4 114.8-91.8z"/>
					</g>
				</g>
				<g id="&lt;Group&gt;">
					<g id="&lt;Group&gt;">
						<path id="&lt;Compound Path&gt;" class="s0" d="m530.7 1048.1c-0.9 0-1.7-0.6-1.9-1.5-0.9-3.9-1.5-8-2-12.2-0.1-1.1 0.7-2 1.8-2.1 1-0.1 2 0.6 2.1 1.7 0.4 4 1.1 8 1.9 11.8 0.3 1-0.4 2.1-1.5 2.3q-0.2 0-0.4 0zm-2.2-33.4q-0.1 0-0.2 0c-1-0.1-1.9-1-1.8-2.1 0.6-7.2 1.7-14.4 3.4-21.6 0.3-1 1.4-1.7 2.4-1.4 1.1 0.2 1.7 1.3 1.5 2.4-1.7 6.9-2.9 13.9-3.4 20.9 0 1-0.9 1.8-1.9 1.8zm151.1-12c-1 0-1.9-0.7-2-1.8-0.1-1 0.7-2 1.8-2.1 6.9-0.6 13.4-2.7 19.3-6.5 1-0.5 2.2-0.3 2.7 0.7 0.6 0.9 0.3 2.1-0.6 2.7-6.4 4-13.5 6.4-21.1 7q0 0-0.1 0zm-21.2-2.8q-0.3 0-0.6-0.1-1.1-0.4-2.2-0.8c-6.4-2.4-12.2-5.6-17.3-9.6-0.8-0.7-1-1.9-0.3-2.8 0.7-0.8 1.9-1 2.8-0.3 4.7 3.7 10.1 6.8 16.2 9.1q1 0.4 2 0.7c1.1 0.3 1.6 1.5 1.3 2.5-0.3 0.8-1.1 1.3-1.9 1.3zm56.5-19q-0.6 0-1.1-0.3c-0.9-0.6-1.1-1.8-0.5-2.7 3.7-5.8 6.4-12.4 7.8-19.2 0.2-1 1.2-1.7 2.3-1.5 1 0.2 1.7 1.2 1.5 2.3-1.4 7.3-4.3 14.4-8.3 20.5-0.4 0.6-1 0.9-1.7 0.9zm-89.3-7.3c-0.6 0-1.3-0.4-1.7-1-3.5-6.4-5.9-13.4-7.1-21-0.1-1 0.6-2 1.7-2.2 1-0.2 2 0.6 2.2 1.6 1.1 7.1 3.3 13.7 6.6 19.6 0.6 1 0.2 2.2-0.7 2.7q-0.5 0.3-1 0.3zm-87.1-0.6q-0.3 0-0.7-0.1c-1-0.5-1.5-1.6-1.1-2.6 2.8-6.7 6.2-13.3 10-19.4 0.5-0.9 1.7-1.2 2.7-0.7 0.9 0.6 1.2 1.8 0.6 2.7-3.7 6-6.9 12.4-9.6 18.9-0.4 0.8-1.1 1.2-1.9 1.2zm184.4-33.3c-0.9 0-1.7-0.6-1.9-1.5-1.4-6.9-4.3-13.1-8.5-18.7-0.7-0.8-0.5-2 0.4-2.7 0.8-0.7 2-0.5 2.7 0.4 4.6 5.9 7.7 12.7 9.2 20.2 0.3 1-0.4 2.1-1.5 2.3q-0.2 0-0.4 0zm-161.8-3.2c-0.5 0-1-0.1-1.3-0.5-0.8-0.7-0.9-1.9-0.2-2.7 4.8-5.6 10.1-10.7 15.7-15.2 0.8-0.7 2-0.6 2.7 0.3 0.7 0.8 0.6 2.1-0.3 2.7-5.4 4.4-10.5 9.4-15.2 14.8-0.4 0.4-0.9 0.6-1.4 0.6zm57.7-4.6q-0.1 0-0.3-0.1c-1-0.1-1.8-1.1-1.6-2.2 1.1-7.1 3.1-14.2 6.1-21.1 0.4-1 1.5-1.5 2.5-1 1 0.4 1.5 1.5 1.1 2.5-2.9 6.7-4.8 13.4-5.8 20.2-0.2 1-1 1.7-2 1.7zm-24.4-22.3c-0.7 0-1.4-0.3-1.8-1-0.5-1-0.1-2.1 0.8-2.7 6.4-3.4 13.2-6.3 20.1-8.5 1-0.3 2.1 0.2 2.5 1.3 0.3 1-0.3 2.1-1.3 2.4-6.7 2.2-13.2 4.9-19.4 8.3q-0.5 0.2-0.9 0.2zm103.5-3.2q-0.5 0-1-0.3c-5.7-3.2-12.2-5.7-19.5-7.5-1-0.2-1.7-1.3-1.4-2.3 0.2-1.1 1.3-1.7 2.3-1.5 7.6 1.8 14.5 4.5 20.5 7.9 1 0.6 1.3 1.7 0.8 2.7-0.4 0.6-1.1 1-1.7 1zm-62.8-9.7c-1 0-1.8-0.8-2-1.8-0.1-1 0.7-2 1.8-2.1 7-0.9 14.4-1.2 21.7-0.8 1.1 0 2 0.9 1.9 2 0 1.1-0.9 1.9-2 1.9-7.2-0.4-14.3-0.1-21.2 0.7q-0.1 0.1-0.2 0.1zm0.2-4.2q-0.6 0-1.1-0.3c-0.9-0.7-1.1-1.9-0.5-2.8 4.2-5.8 9.1-11.3 14.5-16.4 0.8-0.7 2-0.7 2.7 0.1 0.8 0.8 0.7 2-0.1 2.8-5.2 4.9-9.9 10.2-13.9 15.8-0.4 0.5-1 0.8-1.6 0.8zm31.2-29.3c-0.7 0-1.3-0.3-1.7-0.9-0.6-0.9-0.3-2.1 0.6-2.7 6-3.9 12.4-7.3 19.2-10.3 1-0.4 2.2 0 2.6 1 0.4 1 0 2.2-1 2.6-6.6 2.9-12.9 6.2-18.7 10q-0.5 0.3-1 0.3zm39.2-17.3c-0.9 0-1.7-0.6-1.9-1.5-0.3-1 0.3-2.1 1.3-2.4 6.8-1.9 14-3.4 21.3-4.4 1.1-0.2 2.1 0.5 2.2 1.6 0.2 1.1-0.6 2.1-1.6 2.2-7.2 1.1-14.2 2.5-20.8 4.4q-0.3 0.1-0.5 0.1z"/>
					</g>
				</g>
			</g>
			<g id="&lt;Group&gt;">
				<path id="&lt;Mesh&gt;" class="s4" d="m298 1321c-16.8 38.8-3.4 70.5 11.7 100.7 18.5 37.1 6.2 69.2-6.2 102.6-12.3 33.3 13.6 82.8 53.2 118.6 39.5 35.8 18.5 43.2 13.6 86.5-3.9 33.6 5 64.3 30.6 91.9 7.3 7.9 16 15.6 26.2 23 45.7 33.4-6.2 48.2 27.2 69.2q0.2 0.1 0.4 0.2c0-42.2 8.7-81 18.3-116.3 10.3-39.1 21.6-58.9 0.4-82.4q-3.8-3.8-7.8-8.2c-32.2-36-34.2-93.2-25.8-137.2q-0.2-1.8-0.4-3.5c6.5-42.7 5-80.8-16-106.7q-0.8-0.8-1.5-1.7c-16.9-20.7-19.9-63.5-16.4-103.7 0.3-5.3 0.9-10.3 1.5-14.8-14.2-11.5-29.1-29.4-47.8-39.8-18.1-10-40-5.2-53.2 9.2-3.2 3.6-6 7.7-8 12.4zm107.5 33c-3.5 40.2-0.5 83 16.4 103.7q0.7 0.9 1.5 1.7c21 25.9 22.5 64 16 106.7q0.2 1.7 0.4 3.5c-8.4 44-6.4 101.2 25.8 137.2q4 4.4 7.8 8.2c21.2 23.5 9.9 43.3-0.4 82.4-9.6 35.3-18.3 74.1-18.3 116.3 33.8 20.7 154 3.5 154 3.5 32.2-100.1 69.2-161.9 23.5-186.6-45.7-24.7-34.6-85.2-39.5-133.4-5-48.2-27.2-89-60.6-97.7-29.6-7.6-28-66.9-49.8-103.5-2.7-4.6-5.9-8.9-9.5-12.6-32.1-33.4-38.3-23.5-63-42q-1.4-1.1-2.8-2.2c-0.6 4.5-1.2 9.5-1.5 14.8z"/>
				<g id="&lt;Group&gt;" style="mix-blend-mode: multiply">
					<g id="&lt;Group&gt;">
						<path id="&lt;Path&gt;" class="s5" d="m564.6 1707.1c-1.3-0.5-2.6 0.2-3 1.4l-16.9 49.7q-3.5-16.3-8-34c-13.8-55.3-36.8-126.9-74.8-206.2q0.2-0.3 0.3-0.7l19.8-58.1c0.4-1.2-0.2-2.6-1.5-3-1.2-0.4-2.5 0.3-3 1.5l-18.5 54.3c-28.6-58.9-65.4-121.9-112.8-185.6-0.8-1.1-2.3-1.3-3.3-0.5-1.1 0.8-1.3 2.3-0.5 3.3 28 37.7 52.3 75.1 73.4 111.5l-42.1-13.3c-1.3-0.4-2.6 0.3-3 1.5-0.4 1.3 0.3 2.6 1.6 3l46.9 14.8q0 0 0.1 0.1c43.6 76.5 73.1 148.6 93 209.6l-61.7-14.5c-1.3-0.3-2.6 0.4-2.9 1.7-0.3 1.3 0.5 2.6 1.8 2.9l63 14.8q0.3 0.1 0.6 0.1 0.4 0 0.7-0.2c7.4 23.1 13.4 44.5 18.3 63.9 3.7 14.7 6.9 28.7 9.6 42-0.1 0.5 0 1 0.3 1.4 16.4 80.6 16.2 132 16.2 132.6 0 1.3 1 2.4 2.3 2.4q0 0 0.1 0c1.3 0 2.3-1 2.3-2.3 0-0.6 0.3-52.6-16.3-133.9l19.4-57.2c0.5-1.3-0.2-2.6-1.4-3z"/>
					</g>
				</g>
			</g>
			<g id="&lt;Group&gt;">
				<path id="&lt;Mesh&gt;" class="s6" d="m161 1671.7c2.5 25.3 18.8 38.1 35.5 49.6 20.6 14.1 23.4 34.6 26.7 55.7 3.2 21.2 31.2 39.7 62.5 47 31.3 7.3 22.4 17.4 32.4 41.6 10 24.2 29.6 39.7 63.4 43.9 27.6 3.5 17.3 19.4 25.5 25.9 1.9 1.4 4.6 2.4 9 2.6 23.6 1.3 97.5-16.3 97.5-16.3-12.3-62.1-25.9-132.1-57.2-131.8-31.2 0.3-43-34.8-59.7-58.7-16.6-24-40.2-39-60.3-33.8-17.8 4.6-34.3-27-56.4-40-2.8-1.6-5.7-2.9-8.7-3.8-26.6-8.2-27-1.2-45.4-3.8-11.2-1.6-25.2-7.4-38.9-7.3-12.4 0-22.5 8.8-25.3 20.3-0.7 2.8-0.9 5.8-0.6 8.9z"/>
				<g id="&lt;Group&gt;" style="mix-blend-mode: multiply">
					<g id="&lt;Group&gt;">
						<path id="&lt;Path&gt;" class="s5" d="m469.5 1899.8c-0.2-0.3-20.6-37.6-65.3-85.5-23.4-25-56.4-56-99.5-86.7q0-0.2 0-0.5l-6.5-36.3c-0.2-0.8-0.9-1.3-1.7-1.2-0.8 0.2-1.3 0.9-1.1 1.7l6.1 34c-32.3-22.7-70-45.1-113.5-64.9-0.8-0.3-1.6 0-1.9 0.7-0.3 0.8 0 1.6 0.7 1.9 25.7 11.7 49.4 24.3 71.1 37.3l-26 5.3c-0.8 0.2-1.3 0.9-1.2 1.7 0.2 0.8 1 1.3 1.7 1.1l29.1-5.9q0 0 0 0c45.3 27.6 81.8 56.9 110 83.3l-36.7 10.3c-0.7 0.2-1.2 1-0.9 1.7 0.2 0.8 1 1.2 1.7 1l37.5-10.5q0.2-0.1 0.3-0.2 0.2-0.1 0.4-0.2c10.6 9.9 20 19.5 28.2 28.3 44.5 47.6 64.8 84.6 65 85 0.4 0.7 1.3 1 2 0.6q0 0 0 0c0.7-0.4 0.9-1.3 0.5-2z"/>
					</g>
				</g>
			</g>
			<g id="&lt;Group&gt;">
				<path id="&lt;Path&gt;" class="s7" d="m2725.9 1961.5h-2428v-23.4c0-21.9 17.8-39.7 39.7-39.7h2348.5c22 0 39.8 17.8 39.8 39.7z"/>
			</g>
			<g id="&lt;Group&gt;">
				<path id="&lt;Mesh&gt;" class="s8" d="m2672.5 1110.5c20.5 47.1 4.1 85.7-14.2 122.4-22.5 45-7.5 84 7.5 124.6 15 40.5-16.5 100.6-64.5 144.1-48.1 43.5-22.6 52.5-16.5 105.1 4.6 40.8-6.1 78.1-37.3 111.6-8.9 9.7-19.4 19-31.8 28-55.5 40.5 7.5 58.5-33 84q-0.2 0.2-0.5 0.3c-0.1-51.3-10.5-98.4-22.3-141.4-12.5-47.4-26.2-71.5-0.5-100q4.7-4.7 9.6-10c39.1-43.7 41.5-113.2 31.3-166.7q0.2-2.1 0.5-4.2c-7.9-51.9-6.1-98.2 19.4-129.6q0.9-1 1.9-2c20.5-25.2 24.2-77.2 19.9-126.1-0.5-6.4-1.2-12.4-1.9-17.9 17.3-14 35.3-35.8 58.1-48.4 22-12.1 48.5-6.4 64.6 11.2 4 4.3 7.3 9.4 9.7 15zm-130.5 40.1c4.3 48.9 0.6 100.9-19.9 126.1q-1 1-1.9 2c-25.5 31.4-27.3 77.7-19.4 129.6q-0.3 2.1-0.5 4.2c10.2 53.5 7.8 123-31.3 166.7q-4.9 5.3-9.6 10c-25.7 28.5-12 52.6 0.5 100 11.8 43 22.2 90.1 22.3 141.4-41.1 25.1-187.2 4.2-187.2 4.2-39-121.5-84-196.6-28.5-226.6 55.5-30.1 42-103.6 48-162.2 6-58.5 33.1-108 73.6-118.5 36-9.4 34.1-81.4 60.5-125.8 3.4-5.6 7.2-10.8 11.6-15.4 39-40.5 46.5-28.5 76.5-51q1.7-1.3 3.4-2.6c0.7 5.5 1.4 11.5 1.9 17.9z"/>
				<g id="&lt;Group&gt;" style="mix-blend-mode: multiply">
					<g id="&lt;Group&gt;">
						<path id="&lt;Path&gt;" class="s5" d="m2348.7 1579.6c1.5-0.6 3.1 0.2 3.7 1.7l20.5 60.4c2.8-13.2 6-27 9.6-41.4 16.8-67.1 44.8-154.1 90.9-250.5q-0.2-0.3-0.4-0.8l-24-70.5c-0.5-1.5 0.3-3.2 1.8-3.7 1.5-0.5 3.1 0.3 3.6 1.8l22.5 66c34.7-71.5 79.5-148.1 137.1-225.5 0.9-1.3 2.7-1.6 4-0.6 1.3 0.9 1.5 2.7 0.6 4-34 45.8-63.5 91.2-89.2 135.5l51.2-16.2c1.5-0.5 3.1 0.4 3.6 1.9 0.5 1.5-0.3 3.1-1.9 3.6l-57 18q0 0-0.1 0c-53 93-88.8 180.6-113 254.7l75-17.7c1.5-0.3 3.1 0.6 3.4 2.2 0.4 1.5-0.6 3.1-2.1 3.4l-76.6 18q-0.3 0.1-0.6 0.1-0.5 0-1-0.1c-9 28-16.3 54-22.2 77.6-4.4 17.9-8.3 34.9-11.6 51 0.1 0.6-0.1 1.2-0.4 1.7-19.9 97.9-19.7 160.4-19.7 161.1 0.1 1.6-1.2 2.9-2.8 2.9q0 0 0 0c-1.6 0-2.9-1.3-2.9-2.8 0-0.8-0.3-63.9 19.9-162.7l-23.7-69.5c-0.5-1.5 0.3-3.1 1.8-3.6z"/>
					</g>
				</g>
			</g>
			<g id="&lt;Group&gt;">
				<path id="&lt;Mesh&gt;" class="s9" d="m2839 1536.5c-3 30.8-22.9 46.3-43.2 60.3-25 17.1-28.4 42.1-32.3 67.8-4 25.7-38 48.1-76 57-38 8.9-27.2 21.1-39.3 50.5-12.2 29.4-36 48.2-77.1 53.4-33.6 4.2-21 23.6-31 31.4-2.3 1.7-5.6 2.9-10.9 3.2-28.7 1.6-118.5-19.8-118.5-19.8 14.9-75.4 31.5-160.5 69.5-160.1 38 0.3 52.3-42.3 72.5-71.4 20.3-29.1 48.9-47.3 73.3-41 21.7 5.6 41.7-32.8 68.5-48.5 3.4-2 6.9-3.6 10.6-4.8 32.3-9.9 32.8-1.4 55.1-4.5 13.7-1.9 30.6-9 47.3-8.9 15.1 0 27.4 10.7 30.7 24.7 0.8 3.4 1.1 7 0.8 10.7z"/>
				<g id="&lt;Group&gt;" style="mix-blend-mode: multiply">
					<g id="&lt;Group&gt;">
						<path id="&lt;Path&gt;" class="s5" d="m2464.1 1813.8c0.3-0.5 25.1-45.8 79.4-104 28.5-30.4 68.5-68 120.9-105.3q0-0.3 0-0.6l7.9-44.1c0.2-1 1.1-1.6 2.1-1.4 0.9 0.2 1.5 1.1 1.3 2l-7.4 41.3c39.2-27.5 85-54.8 137.9-78.8 0.9-0.4 1.9 0 2.3 0.9 0.4 0.8 0 1.9-0.9 2.3-31.2 14.1-60 29.4-86.3 45.3l31.6 6.4c0.9 0.2 1.5 1.1 1.3 2-0.1 1-1.1 1.6-2 1.4l-35.3-7.2q0 0 0 0c-55 33.5-99.4 69.2-133.7 101.1l44.6 12.6c0.9 0.3 1.4 1.2 1.2 2.1-0.3 1-1.2 1.5-2.2 1.2l-45.5-12.8q-0.2 0-0.4-0.1-0.2-0.2-0.4-0.4c-12.9 12.1-24.4 23.7-34.3 34.4-54.1 57.9-78.8 102.9-79 103.3-0.5 0.8-1.5 1.2-2.4 0.7q0 0 0 0c-0.8-0.5-1.1-1.5-0.7-2.3z"/>
					</g>
				</g>
			</g>
			<g id="&lt;Group&gt;">
				<g id="&lt;Group&gt;">
					<path id="&lt;Path&gt;" class="s10" d="m2045.4 1592.3l-85.7-322.4-1.5-123.5h33.4l1.5 123.5 85.7 322.4z"/>
				</g>
				<g id="&lt;Group&gt;">
					<path id="&lt;Path&gt;" class="s11" d="m2330.8 1269.9l-1.4-123.5h-337.8l1.5 123.5 85.7 322.4h337.7z"/>
				</g>
				<g id="&lt;Group&gt;">
					<path id="&lt;Path&gt;" class="s10" d="m2308.2 1256.8h-298.4v-93h298.4z"/>
				</g>
				<g id="&lt;Group&gt;">
					<g id="&lt;Group&gt;">
						<path id="&lt;Path&gt;" class="s12" d="m2082.6 1326h-52.3l-9.5-32.2h52.3z"/>
					</g>
					<g id="&lt;Group&gt;">
						<path id="&lt;Path&gt;" class="s12" d="m2160.5 1326h-52.3l-9.4-32.2h52.3z"/>
					</g>
					<g id="&lt;Group&gt;">
						<path id="&lt;Path&gt;" class="s12" d="m2238.4 1326h-52.2l-9.5-32.2h52.3z"/>
					</g>
					<g id="&lt;Group&gt;">
						<path id="&lt;Path&gt;" class="s12" d="m2316.4 1326h-52.3l-9.4-32.2h52.2z"/>
					</g>
				</g>
				<g id="&lt;Group&gt;">
					<g id="&lt;Group&gt;">
						<path id="&lt;Path&gt;" class="s12" d="m2098.9 1385.9h-52.3l-9.4-32.2h52.3z"/>
					</g>
					<g id="&lt;Group&gt;">
						<path id="&lt;Path&gt;" class="s12" d="m2176.8 1385.9h-52.3l-9.4-32.2h52.3z"/>
					</g>
					<g id="&lt;Group&gt;">
						<path id="&lt;Path&gt;" class="s12" d="m2254.8 1385.9h-52.3l-9.4-32.2h52.2z"/>
					</g>
					<g id="&lt;Group&gt;">
						<path id="&lt;Path&gt;" class="s12" d="m2332.7 1385.9h-52.3l-9.4-32.2h52.3z"/>
					</g>
					<g id="&lt;Group&gt;">
						<path id="&lt;Path&gt;" class="s12" d="m2361.8 1434.6h-52.3l-9.5-32.2h52.3z"/>
					</g>
				</g>
				<g id="&lt;Group&gt;">
					<g id="&lt;Group&gt;">
						<path id="&lt;Path&gt;" class="s13" d="m2127 1452.5h-65.6l-11.9-40.4h65.7z"/>
					</g>
					<g id="&lt;Group&gt;">
						<path id="&lt;Path&gt;" class="s13" d="m2141.5 1509.3h-65.6l-11.9-40.4h65.7z"/>
					</g>
					<g id="&lt;Group&gt;">
						<path id="&lt;Path&gt;" class="s13" d="m2156.1 1568.8h-65.7l-11.8-40.4h65.6z"/>
					</g>
					<g id="&lt;Group&gt;">
						<path id="&lt;Path&gt;" class="s13" d="m2214.8 1452.5h-65.6l-11.9-40.4h65.7z"/>
					</g>
					<g id="&lt;Group&gt;">
						<path id="&lt;Path&gt;" class="s13" d="m2229.3 1509.3h-65.6l-11.8-40.4h65.6z"/>
					</g>
					<g id="&lt;Group&gt;">
						<path id="&lt;Path&gt;" class="s13" d="m2243.9 1568.8h-65.7l-11.8-40.4h65.6z"/>
					</g>
					<g id="&lt;Group&gt;">
						<path id="&lt;Path&gt;" class="s13" d="m2295.9 1452.5h-65.7l-11.8-40.4h65.6z"/>
					</g>
					<g id="&lt;Group&gt;">
						<path id="&lt;Path&gt;" class="s13" d="m2310.4 1509.3h-65.6l-11.9-40.4h65.6z"/>
					</g>
					<g id="&lt;Group&gt;">
						<path id="&lt;Path&gt;" class="s13" d="m2400 1563.2h-65.6l-31.1-116.8h65.7z"/>
					</g>
					<g id="&lt;Group&gt;">
						<path id="&lt;Path&gt;" class="s13" d="m2324.9 1568.8h-65.6l-11.9-40.4h65.7z"/>
					</g>
				</g>
			</g>
			<g id="&lt;Group&gt;">
				<g id="&lt;Group&gt;">
					<g id="&lt;Group&gt;">
						<path id="&lt;Path&gt;" class="s14" d="m928.5 1859.6v-1522.6c0-21 17.1-38.1 38.2-38.1h1090.4c21 0 38.1 17.1 38.1 38.1v1522.6c0 21.1-17.1 38.2-38.1 38.2h-1090.4c-21.1 0-38.2-17.1-38.2-38.2z"/>
					</g>
					<g id="&lt;Group&gt;">
						<path id="&lt;Path&gt;" class="s15" d="m957.7 1774.1v-1420.3c0-14.2 11.6-25.7 25.8-25.7h1056.8c14.2 0 25.7 11.5 25.7 25.7v1420.3c0 14.2-11.5 25.7-25.7 25.7h-1056.8c-14.2 0-25.8-11.5-25.8-25.7z"/>
					</g>
					<path id="&lt;Mesh&gt;" class="s16" d="m976.6 1780.9q535.3 0 1070.5 0 0-716.9 0-1433.9-535.2 0-1070.5 0 0 717 0 1433.9z"/>
					<g id="&lt;Group&gt;">
						<path id="&lt;Path&gt;" class="s17" d="m1039.8 1717.8v-1307.6h944.1v1307.6z"/>
					</g>
				</g>
			</g>
			<g id="&lt;Group&gt;">
				<g id="&lt;Group&gt;">
					<path id="&lt;Path&gt;" class="s18" d="m1984.8 473.2h-948.4v-63.3h948.4z"/>
				</g>
				<g id="&lt;Group&gt;">
					<path id="&lt;Path&gt;" class="s17" d="m1866.6 453.3h-35.3v-7.9h35.3z"/>
				</g>
				<g id="&lt;Group&gt;">
					<path id="&lt;Path&gt;" class="s17" d="m1909.9 457.1l-25-25 5.6-5.5 24.9 24.9z"/>
				</g>
				<g id="&lt;Group&gt;">
					<path id="&lt;Path&gt;" class="s17" d="m1884.9 451.5l25-24.9 5.5 5.5-24.9 25z"/>
				</g>
				<g id="&lt;Group&gt;">
					<path id="&lt;Compound Path&gt;" fill-rule="evenodd" class="s17" d="m1962.2 424.9v32.2h-32.1v-32.2zm-6.3 6.2h-19.7v19.7h19.7z"/>
				</g>
				<g id="&lt;Group&gt;">
					<path id="&lt;Path&gt;" class="s17" d="m1159.8 442c0 5.6-4.5 10.1-10 10.1-5.6 0-10.1-4.5-10.1-10.1 0-5.5 4.5-10 10.1-10 5.5 0 10 4.5 10 10z"/>
				</g>
				<g id="&lt;Group&gt;">
					<path id="&lt;Path&gt;" class="s17" d="m1118.1 442c0 5.6-4.5 10.1-10.1 10.1-5.5 0-10-4.5-10-10.1 0-5.5 4.5-10 10-10 5.6 0 10.1 4.5 10.1 10z"/>
				</g>
				<g id="&lt;Group&gt;">
					<path id="&lt;Path&gt;" class="s17" d="m1076.3 442c0 5.6-4.5 10.1-10.1 10.1-5.5 0-10-4.5-10-10.1 0-5.5 4.5-10 10-10 5.6 0 10.1 4.5 10.1 10z"/>
				</g>
			</g>
			<g id="&lt;Group&gt;">
				<g id="&lt;Group&gt;">
					<path id="&lt;Path&gt;" class="s17" d="m1838.8 1283h-706.6v-761h706.6z"/>
				</g>
				<g id="&lt;Group&gt;" style="mix-blend-mode: multiply">
					<g id="&lt;Group&gt;">
						<path id="&lt;Path&gt;" class="s19" d="m1838.8 1283h47.8v-729.7h-47.8z"/>
					</g>
				</g>
				<g id="&lt;Group&gt;">
					<g id="&lt;Group&gt;">
						<path id="&lt;Compound Path&gt;" class="s20" d="m1243.2 613.7h-40.7v-14.7h99.1v14.7h-40.9v119h-17.5z"/>
					</g>
					<g id="&lt;Group&gt;">
						<path id="&lt;Compound Path&gt;" fill-rule="evenodd" class="s20" d="m1323.2 690.7l-13.9 42h-17.8l45.4-133.7h20.9l45.6 133.7h-18.4l-14.3-42zm43.8-13.5l-13.1-38.5c-3-8.8-4.9-16.7-6.9-24.4h-0.4c-2 7.9-4.2 16-6.8 24.2l-13.1 38.7z"/>
					</g>
					<g id="&lt;Group&gt;">
						<path id="&lt;Compound Path&gt;" class="s20" d="m1493.5 732.7l-17-29.5c-7-11.4-11.3-18.7-15.5-26.4h-0.4c-3.8 7.7-7.5 14.8-14.5 26.6l-16 29.3h-19.9l40.9-67.6-39.3-66.1h20l17.7 31.3c5 8.8 8.7 15.5 12.3 22.7h0.6c3.8-8 7.1-14.1 12.1-22.7l18.3-31.3h19.8l-40.7 65.1 41.7 68.6z"/>
					</g>
				</g>
				<g id="&lt;Group&gt;">
					<path id="&lt;Path&gt;" class="s18" d="m1688.8 643.1h-102.7c-6.9 0-12.5-5.6-12.5-12.5v-8.8c0-6.9 5.6-12.5 12.5-12.5h102.7c6.9 0 12.5 5.6 12.5 12.5v8.8c0 6.9-5.6 12.5-12.5 12.5z"/>
				</g>
				<g id="&lt;Group&gt;">
					<path id="&lt;Path&gt;" class="s18" d="m1761.3 718.8h-175.2c-6.9 0-12.5-5.6-12.5-12.5v-8.7c0-6.9 5.6-12.5 12.5-12.5h175.2c6.9 0 12.5 5.6 12.5 12.5v8.7c0 6.9-5.6 12.5-12.5 12.5z"/>
				</g>
				<g id="&lt;Group&gt;">
					<path id="&lt;Path&gt;" class="s18" d="m1370.9 948.9h-175.2c-6.9 0-12.5-5.6-12.5-12.5v-8.8c0-6.9 5.6-12.5 12.5-12.5h175.2c6.9 0 12.5 5.6 12.5 12.5v8.8c0 6.9-5.6 12.5-12.5 12.5z"/>
				</g>
				<g id="&lt;Group&gt;">
					<path id="&lt;Path&gt;" class="s18" d="m1370.9 1078.4h-175.2c-6.9 0-12.5-5.6-12.5-12.6v-8.7c0-6.9 5.6-12.5 12.5-12.5h175.2c6.9 0 12.5 5.6 12.5 12.5v8.7c0 7-5.6 12.6-12.5 12.6z"/>
				</g>
				<g id="&lt;Group&gt;">
					<path id="&lt;Path&gt;" class="s18" d="m1690.4 1176.2h-494.7c-6.9 0-12.5-5.6-12.5-12.5v-8.7c0-6.9 5.6-12.5 12.5-12.5h494.7c6.9 0 12.5 5.6 12.5 12.5v8.7c0 6.9-5.6 12.5-12.5 12.5z"/>
				</g>
				<g id="&lt;Group&gt;">
					<path id="&lt;Path&gt;" class="s18" d="m1668.2 842.4h-472.5c-6.9 0-12.5-5.6-12.5-12.5v-8.8c0-6.9 5.6-12.5 12.5-12.5h472.5c6.9 0 12.5 5.6 12.5 12.5v8.8c0 6.9-5.6 12.5-12.5 12.5z"/>
				</g>
				<g id="&lt;Group&gt;" style="mix-blend-mode: multiply">
					<g id="&lt;Group&gt;">
						<path id="&lt;Path&gt;" class="s19" d="m1798.1 1041.7h-321.2v-141.7h321.2z"/>
					</g>
				</g>
				<g id="&lt;Group&gt;">
					<path id="&lt;Path&gt;" class="s2" d="m1784.5 1029.3h-321.2v-141.6h321.2z"/>
				</g>
			</g>
			<g id="&lt;Group&gt;">
				<g id="&lt;Group&gt;">
					<path id="&lt;Path&gt;" class="s21" d="m592.8 1897.8h617.3c12.9 0 23.3-10.4 23.3-23.3l-36-439.7c0-12.8-10.4-23.2-23.3-23.2h-617.3c-12.8 0-23.2 10.4-23.2 23.2l36 439.7c0 12.9 10.4 23.3 23.2 23.3z"/>
				</g>
				<g id="&lt;Group&gt;">
					<path id="&lt;Path&gt;" class="s22" d="m538.8 1897.8h617.3c12.9 0 23.3-10.4 23.3-23.3l18-439.7c0-12.8-10.4-23.2-23.3-23.2h-617.3c-12.8 0-23.2 10.4-23.2 23.2l-18.1 439.7c0 12.9 10.5 23.3 23.3 23.3z"/>
				</g>
				<g id="&lt;Group&gt;">
					<path id="&lt;Path&gt;" class="s18" d="m533.6 1434.8c0-12.8 10.4-23.2 23.2-23.2h617.3c12.9 0 23.3 10.4 23.3 23.2l-1.8 44.4h-663.9z"/>
				</g>
				<g id="&lt;Group&gt;">
					<g id="&lt;Group&gt;" style="mix-blend-mode: multiply">
						<g id="&lt;Group&gt;">
							<path id="&lt;Path&gt;" class="s19" d="m851.2 1445c0 7.4 6 13.4 13.4 13.4 7.3 0 13.3-6 13.3-13.4 0-7.4-6-13.4-13.3-13.4-7.4 0-13.4 6-13.4 13.4z"/>
						</g>
					</g>
					<g id="&lt;Group&gt;">
						<path id="&lt;Path&gt;" class="s23" d="m862.3 1377.4h4.5c2.2 0 3.9 1.7 3.9 3.9v61.3c0 2.1-1.7 3.8-3.9 3.8h-4.5c-2.2 0-3.9-1.7-3.9-3.8v-61.3c0-2.2 1.7-3.9 3.9-3.9z"/>
					</g>
				</g>
				<g id="&lt;Group&gt;">
					<g id="&lt;Group&gt;" style="mix-blend-mode: multiply">
						<g id="&lt;Group&gt;">
							<path id="&lt;Path&gt;" class="s19" d="m687.3 1445c0 7.4 6 13.4 13.4 13.4 7.4 0 13.4-6 13.4-13.4 0-7.4-6-13.4-13.4-13.4-7.4 0-13.4 6-13.4 13.4z"/>
						</g>
					</g>
					<g id="&lt;Group&gt;">
						<path id="&lt;Path&gt;" class="s23" d="m698.4 1377.4h4.6c2.1 0 3.8 1.7 3.8 3.9v61.3c0 2.1-1.7 3.8-3.8 3.8h-4.6c-2.2 0-3.9-1.7-3.9-3.8v-61.3c0-2.2 1.7-3.9 3.9-3.9z"/>
					</g>
				</g>
				<g id="&lt;Group&gt;">
					<g id="&lt;Group&gt;" style="mix-blend-mode: multiply">
						<g id="&lt;Group&gt;">
							<path id="&lt;Path&gt;" class="s19" d="m1031.3 1445c0 7.4 5.9 13.4 13.3 13.4 7.4 0 13.4-6 13.4-13.4 0-7.4-6-13.4-13.4-13.4-7.4 0-13.3 6-13.3 13.4z"/>
						</g>
					</g>
					<g id="&lt;Group&gt;">
						<path id="&lt;Path&gt;" class="s23" d="m1042.4 1377.4h4.5c2.2 0 3.9 1.7 3.9 3.9v61.3c0 2.1-1.7 3.8-3.9 3.8h-4.5c-2.2 0-3.9-1.7-3.9-3.8v-61.3c0-2.2 1.7-3.9 3.9-3.9z"/>
					</g>
				</g>
				<g id="&lt;Group&gt;" style="mix-blend-mode: multiply">
					<g id="&lt;Group&gt;">
						<path id="&lt;Path&gt;" class="s19" d="m1072.9 1615.9h73.2c5.3 0 9.6-4.1 9.9-9.4l2.7-58.7c0.2-5.6-4.3-10.3-9.9-10.3h-73.2c-5.3 0-9.6 4.1-9.9 9.4l-2.7 58.7c-0.2 5.6 4.3 10.3 9.9 10.3z"/>
					</g>
				</g>
				<g id="&lt;Group&gt;" style="mix-blend-mode: multiply">
					<g id="&lt;Group&gt;">
						<path id="&lt;Path&gt;" class="s19" d="m951 1625.4h73.2c5.3 0 9.7-4.1 9.9-9.4l2.7-58.7c0.3-5.6-4.2-10.3-9.9-10.3h-73.2c-5.3 0-9.6 4.1-9.9 9.4l-2.7 58.7c-0.2 5.6 4.3 10.3 9.9 10.3z"/>
					</g>
				</g>
				<g id="&lt;Group&gt;" style="mix-blend-mode: multiply">
					<g id="&lt;Group&gt;">
						<path id="&lt;Path&gt;" class="s19" d="m689 1776.2h73.2c5.3 0 9.6-4.1 9.9-9.4l2.6-58.7c0.3-5.6-4.2-10.3-9.8-10.3h-73.2c-5.3 0-9.7 4.1-9.9 9.4l-2.7 58.7c-0.3 5.6 4.2 10.3 9.9 10.3z"/>
					</g>
				</g>
				<g id="&lt;Group&gt;" style="mix-blend-mode: multiply">
					<g id="&lt;Group&gt;">
						<path id="&lt;Path&gt;" class="s19" d="m561.1 1776.2h73.2c5.3 0 9.7-4.1 9.9-9.4l2.7-58.7c0.2-5.6-4.3-10.3-9.9-10.3h-73.2c-5.3 0-9.6 4.1-9.9 9.4l-2.7 58.7c-0.2 5.6 4.3 10.3 9.9 10.3z"/>
					</g>
				</g>
				<g id="&lt;Group&gt;" style="mix-blend-mode: multiply">
					<g id="&lt;Group&gt;">
						<path id="&lt;Path&gt;" class="s19" d="m1066.6 1766.7h73.2c5.3 0 9.6-4.1 9.8-9.4l2.7-58.7c0.3-5.6-4.2-10.3-9.8-10.3h-73.3c-5.2 0-9.6 4.1-9.8 9.4l-2.7 58.7c-0.3 5.6 4.2 10.3 9.9 10.3z"/>
					</g>
				</g>
				<g id="&lt;Group&gt;">
					<path id="&lt;Path&gt;" class="s18" d="m945 1615.9h73.3c5.2 0 9.6-4.1 9.8-9.4l2.7-58.7c0.3-5.6-4.2-10.3-9.9-10.3h-73.2c-5.3 0-9.6 4.1-9.9 9.4l-2.6 58.7c-0.3 5.6 4.2 10.3 9.8 10.3z"/>
				</g>
				<g id="&lt;Group&gt;" style="mix-blend-mode: multiply">
					<g id="&lt;Group&gt;">
						<path id="&lt;Path&gt;" class="s19" d="m938.7 1766.7h73.2c5.3 0 9.6-4.1 9.9-9.4l2.7-58.7c0.2-5.6-4.3-10.3-9.9-10.3h-73.2c-5.3 0-9.7 4.1-9.9 9.4l-2.7 58.7c-0.2 5.6 4.3 10.3 9.9 10.3z"/>
					</g>
				</g>
				<g id="&lt;Group&gt;" style="mix-blend-mode: multiply">
					<g id="&lt;Group&gt;">
						<path id="&lt;Path&gt;" class="s19" d="m817.2 1615.9h73.2c5.3 0 9.6-4.1 9.9-9.4l2.7-58.7c0.2-5.6-4.3-10.3-9.9-10.3h-73.2c-5.3 0-9.7 4.1-9.9 9.4l-2.7 58.7c-0.3 5.6 4.2 10.3 9.9 10.3z"/>
					</g>
				</g>
				<g id="&lt;Group&gt;" style="mix-blend-mode: multiply">
					<g id="&lt;Group&gt;">
						<path id="&lt;Path&gt;" class="s19" d="m810.8 1766.7h73.2c5.3 0 9.7-4.1 9.9-9.4l2.7-58.7c0.3-5.6-4.2-10.3-9.9-10.3h-73.2c-5.3 0-9.6 4.1-9.9 9.4l-2.7 58.7c-0.2 5.6 4.3 10.3 9.9 10.3z"/>
					</g>
				</g>
				<g id="&lt;Group&gt;" style="mix-blend-mode: multiply">
					<g id="&lt;Group&gt;">
						<path id="&lt;Path&gt;" class="s19" d="m689.3 1615.9h73.2c5.3 0 9.7-4.1 9.9-9.4l2.7-58.7c0.3-5.6-4.2-10.3-9.9-10.3h-73.2c-5.3 0-9.6 4.1-9.9 9.4l-2.7 58.7c-0.2 5.6 4.3 10.3 9.9 10.3z"/>
					</g>
				</g>
				<g id="&lt;Group&gt;">
					<path id="&lt;Path&gt;" class="s18" d="m683 1766.7h73.2c5.3 0 9.6-4.1 9.9-9.4l2.7-58.7c0.2-5.6-4.3-10.3-9.9-10.3h-73.2c-5.3 0-9.7 4.1-9.9 9.4l-2.7 58.7c-0.3 5.6 4.2 10.3 9.9 10.3z"/>
				</g>
				<g id="&lt;Group&gt;" style="mix-blend-mode: multiply">
					<g id="&lt;Group&gt;">
						<path id="&lt;Path&gt;" class="s19" d="m561.4 1615.9h73.3c5.3 0 9.6-4.1 9.8-9.4l2.7-58.7c0.3-5.6-4.2-10.3-9.8-10.3h-73.3c-5.2 0-9.6 4.1-9.8 9.4l-2.7 58.7c-0.3 5.6 4.2 10.3 9.8 10.3z"/>
					</g>
				</g>
				<g id="&lt;Group&gt;">
					<path id="&lt;Path&gt;" class="s18" d="m555.1 1766.7h73.2c5.3 0 9.7-4.1 9.9-9.4l2.7-58.7c0.3-5.6-4.2-10.3-9.9-10.3h-73.2c-5.3 0-9.6 4.1-9.9 9.4l-2.7 58.7c-0.2 5.6 4.3 10.3 9.9 10.3z"/>
				</g>
				<g id="&lt;Group&gt;">
					<g id="&lt;Group&gt;">
						<path id="&lt;Path&gt;" class="s24" d="m552 1756.1l35.8-27.4-33.1-28.7c-0.8-0.7-0.8-1.8-0.2-2.6 0.7-0.7 1.8-0.8 2.6-0.2l33.7 29.3 36.6-27.9c0.7-0.6 1.9-0.5 2.5 0.3 0.6 0.8 0.4 1.9-0.4 2.5l-36 27.5 34.7 30.1c0.8 0.7 0.9 1.8 0.2 2.6-0.4 0.4-0.9 0.6-1.4 0.6-0.4 0-0.8-0.2-1.1-0.5l-35.3-30.6-36.5 27.9q-0.5 0.4-1 0.4c-0.6 0-1.1-0.3-1.5-0.8-0.6-0.7-0.4-1.9 0.4-2.5z"/>
					</g>
				</g>
				<g id="&lt;Group&gt;">
					<g id="&lt;Group&gt;">
						<path id="&lt;Path&gt;" class="s24" d="m681.6 1755.2l35.9-27.4-33.1-28.8c-0.8-0.6-0.9-1.8-0.2-2.5 0.6-0.8 1.8-0.9 2.5-0.2l33.7 29.3 36.6-28c0.8-0.6 1.9-0.4 2.5 0.4 0.6 0.8 0.5 1.9-0.3 2.5l-36 27.5 34.7 30.1c0.7 0.6 0.8 1.8 0.2 2.5-0.4 0.4-0.9 0.6-1.4 0.6-0.4 0-0.8-0.1-1.2-0.4l-35.2-30.6-36.5 27.8q-0.5 0.4-1.1 0.4c-0.5 0-1.1-0.2-1.4-0.7-0.6-0.8-0.5-1.9 0.3-2.5z"/>
					</g>
				</g>
				<g id="&lt;Group&gt;">
					<g id="&lt;Group&gt;">
						<path id="&lt;Path&gt;" class="s24" d="m944.2 1603.4l35.9-27.3-33.1-28.8c-0.8-0.7-0.9-1.8-0.2-2.6 0.6-0.7 1.8-0.8 2.5-0.1l33.7 29.2 36.6-27.9c0.8-0.6 2-0.5 2.6 0.3 0.6 0.8 0.4 2-0.4 2.6l-36 27.4 34.7 30.1c0.8 0.7 0.8 1.8 0.2 2.6-0.4 0.4-0.9 0.6-1.4 0.6-0.4 0-0.8-0.2-1.2-0.4l-35.2-30.6-36.5 27.8q-0.5 0.4-1.1 0.4c-0.5 0-1.1-0.3-1.4-0.7-0.6-0.8-0.5-2 0.3-2.6z"/>
					</g>
				</g>
			</g>
			<g id="&lt;Group&gt;">
				<g id="&lt;Group&gt;">
					<path id="&lt;Path&gt;" class="s25" d="m798.1 1022.7c12.7-8.9 40.3-12.2 54.5 8.1 14.3 20.2 113.6 137.9 46.9 158.6-66.6 20.7-118.6-9.7-124.1-32.7-5.5-22.9-0.5-51.9 12.4-78.6 12.9-26.6 10.3-55.4 10.3-55.4z"/>
				</g>
				<g id="&lt;Group&gt;">
					<g id="&lt;Group&gt;">
						<path id="&lt;Path&gt;" class="s26" d="m679.9 1715.4c-3.3-6.6-6.8-19-6-37 0.9-6.7 2.1-15.2 3.4-24.9 0.6-4.8 1.3-10 2-15.3l-32.1 8.6c0.5 5.8 1 11.2 1.5 16.2 1 10.5 0.7 21.2-1.2 31.7-0.6 3.1-1.2 5.8-2 7.2-2.5 5.2-21 23.1-29.4 38.6-0.8 1.8-19.9 4.8-17 9.2 1.7 1 35 3.6 38.7 0 3.7-3.6 12.6-12.5 22.5-14.5 0.6 0.1 0.6 16.1 0.6 16.1l14.4 0.1c0 0 1.7-14.2 2.3-18.5 0.7-4.3 5.6-10.9 2.3-17.5z"/>
					</g>
					<g id="&lt;Group&gt;">
						<path id="&lt;Path&gt;" class="s25" d="m616 1740.6c6 0.7 12.6 2 14.9 1 3.1-1.3 23.7-26.8 46.2-33.1 0.9 2.8 1.8 5.1 2.8 6.9 3.3 6.6-1.6 13.2-2.3 17.5-0.6 4.3-2.3 18.5-2.3 18.5l-14.4-0.1c0 0 0-16-0.6-16.1-9.9 2-18.8 10.9-22.5 14.5-3.7 3.6-37 1-38.7 0-2.8-4.2 15.1-7.1 16.9-9.1z"/>
					</g>
				</g>
				<g id="&lt;Group&gt;">
					<g id="&lt;Group&gt;">
						<path id="&lt;Path&gt;" class="s26" d="m657.4 1507.5c-5-5.4-11.9-16.4-16.1-33.9-1-6.7-2.3-15.1-3.8-24.8-0.8-4.8-1.6-9.9-2.4-15.3l-28.4 17.3c2.1 5.4 4.1 10.5 6 15.1 3.9 9.9 6.6 20.2 7.7 30.8 0.4 3.2 0.5 5.9 0.2 7.5-0.9 5.7-13.6 28.1-17.4 45.3-0.2 2-17.7 10.2-13.7 13.6 1.9 0.5 34.6-6.4 37.2-10.9 2.5-4.5 8.5-15.5 17.5-20.2 0.6-0.1 5.1 15.3 5.1 15.3l13.8-4c0 0-2.4-14.1-3-18.4-0.6-4.3 2.3-12-2.7-17.4z"/>
					</g>
					<g id="&lt;Group&gt;">
						<path id="&lt;Path&gt;" class="s25" d="m603.2 1549.7c5.9-1.1 12.6-1.7 14.6-3.3 2.6-2.2 15.1-32.4 35-44.8 1.6 2.4 3.2 4.4 4.6 5.9 5 5.4 2.1 13.1 2.7 17.4 0.6 4.3 3 18.4 3 18.4l-13.8 4c0 0-4.5-15.4-5.1-15.3-9 4.7-15 15.7-17.5 20.2-2.6 4.5-35.3 11.4-37.2 10.9-3.9-3.3 12.5-11 13.7-13.4z"/>
					</g>
				</g>
				<g id="&lt;Group&gt;">
					<path id="&lt;Path&gt;" class="s27" d="m780.7 1130.4c-45.1 20.5-37.2 124.1-165.1 22.2l-13.6 19.2c20.4 39.7 68.5 92.9 126.2 90.6 57.8-2.3 87.8-37.3 87.8-37.3z"/>
				</g>
				<g id="&lt;Group&gt;">
					<path id="&lt;Path&gt;" class="s20" d="m800.9 1127.3l-20.2 3.1c-2.5 27.6-27.6 57.3-28.8 72.6-1.3 15.3 18.6 38.2 26.7 52.6 8.1 14.5 8.1 27.2 8.1 27.2h84.5c0-3.8 20.3-98.5 17.8-121.9-2.6-23.3-32.6-32.1-32.6-32.1 0 0-30.4 2.4-55.5-1.5z"/>
				</g>
				<g id="&lt;Group&gt;">
					<g id="&lt;Group&gt;">
						<path id="&lt;Path&gt;" class="s25" d="m828.8 1097.2c20.3 3.5 32.2-15.4 26.3-30.3 1.6-30.5-11.4-60.5-57-44.2-22.7 2.8-31.5 32.9-12.8 40.7 24.8 22 43.5 33.8 43.5 33.8z"/>
					</g>
					<g id="&lt;Group&gt;">
						<path id="&lt;Path&gt;" class="s26" d="m810.6 1108.9c1.4 8.5 1.9 10.3-10.2 18.5 0.4 38.3 56 6.9 55.8 1.2 0-0.7-10.3-3-14-9.6-3.8-6.6-5.5-23.2-4.1-45.6-8.7 2.3-11.7-4.6-11.9-16.5-0.2-11.9-5.8-30.8-28.9-27.8-8.7 10.6-13.3 17.4-12.6 31.2 0.7 13.8-0.8 23.6 0.8 30.3 1.7 6.5 8.8 18.6 25.1 18.3z"/>
					</g>
					<path id="&lt;Mesh&gt;" class="s28" d="m797.4 1082.3c0 0-1-0.8-2.1-1.9-0.6-1-1.9-2.7-2.7-3.6 1.4 0.1 5.3 0.7 6.7 0.2 0.7 1.7 0.3 4.2-1.9 5.3zm1.9-5.3c-1.4 0.5-5.3-0.1-6.7-0.2-0.2-0.3-0.4-0.5-0.4-0.6 1.4-0.1 4.3 0.1 5.9-0.5 0.5 0.3 0.9 0.8 1.2 1.3zm-4 3.4q-0.5-0.5-1.1-1c-1.1-1.1-2.1-2.1-2.6-2.7 0.1 0 0.6 0.1 1 0.1 0.8 0.9 2.1 2.6 2.7 3.6zm-2.7-3.6c-0.4 0-0.9-0.1-1-0.1q-0.2-0.3-0.2-0.4c0-0.1 0.3-0.1 0.8-0.1 0 0.1 0.2 0.3 0.4 0.6z"/>
					<g id="&lt;Group&gt;">
						<path id="&lt;Path&gt;" class="s26" d="m849.6 1078.1c0 3.9-3.1 7.1-7.1 7.1-3.9 0-7-3.2-7-7.1 0-3.9 3.1-7.1 7-7.1 4 0 7.1 3.2 7.1 7.1z"/>
					</g>
					<g id="&lt;Group&gt;" style="mix-blend-mode: multiply">
						<g id="&lt;Group&gt;">
							<path id="&lt;Path&gt;" class="s29" d="m841 1081.8c-0.2 0-0.3-0.1-0.4-0.3-0.1-0.2 0-0.5 0.2-0.6q1-0.4 1-1.1c0.1-0.5-0.2-1-0.7-1.3-0.5-0.3-1.1-0.4-1.7-0.1-0.1 0.1-0.3 0.1-0.4 0-0.2-0.1-0.2-0.2-0.2-0.4 0-1.7 1.2-3 2.9-3.6 1.9-0.5 3.7 0 4.7 1.4 0.2 0.2 0.1 0.5-0.1 0.6-0.2 0.2-0.4 0.2-0.6 0-1-1.4-2.6-1.4-3.7-1.1-0.9 0.3-1.9 0.9-2.2 2.1 0.6-0.2 1.3 0 1.8 0.3 0.8 0.5 1.2 1.4 1.2 2.2-0.1 0.5-0.3 1.3-1.6 1.9q-0.1 0-0.2 0z"/>
						</g>
					</g>
					<g id="&lt;Group&gt;" style="mix-blend-mode: multiply">
						<g id="&lt;Group&gt;">
							<path id="&lt;Path&gt;" class="s29" d="m812 1108.9q0.1 0 0.1 0c11.8-3.4 21.2-13.3 24-25.2 0.1-0.2-0.1-0.5-0.3-0.6-0.3 0-0.5 0.1-0.6 0.4-2.7 11.6-11.9 21.2-23.3 24.5-0.2 0.1-0.4 0.3-0.3 0.5 0 0.2 0.2 0.4 0.4 0.4z"/>
						</g>
					</g>
					<g id="&lt;Group&gt;">
						<g id="&lt;Group&gt;">
							<path id="&lt;Path&gt;" class="s25" d="m823.5 1057.9c0.1 0 0.3-0.1 0.4-0.2 0.1-0.2 0-0.4-0.2-0.6-4-5.6-12.3-9.9-15.8-2.8-0.1 0.2-0.4 0.3-0.3 0.6 0 0.2 0.3 0.3 0.5 0.3 2.4-0.7 9.3-0.7 15.2 2.7q0.1 0 0.2 0z"/>
						</g>
					</g>
					<g id="&lt;Group&gt;">
						<g id="&lt;Group&gt;">
							<path id="&lt;Path&gt;" class="s25" d="m786.5 1058.4q0.2 0 0.3-0.2c0.1-0.1 2-2.4 7.8-1.7 0.2 0 0.5-0.2 0.5-0.4 0-0.3-0.3-0.3-0.4-0.5-3.2-7-8.4 1.8-8.6 2.1-0.1 0.2-0.1 0.4 0.1 0.6q0.1 0.1 0.3 0.1z"/>
						</g>
					</g>
					<g id="&lt;Group&gt;">
						<g id="&lt;Group&gt;">
							<path id="&lt;Path&gt;" class="s25" d="m797 1082.5q0.2 0 0.4-0.2c0.1-0.2 0.1-0.4-0.1-0.6-2.4-1.9-5-4.2-5.5-5 0.4 0 1.2-0.1 1.9-0.1 1.6 0 3.5 0 4.6-0.7 2.4-1.3 0.1-11.6-2.1-16.4-0.1-0.2-0.3-0.3-0.6-0.2-0.2 0.1-0.3 0.4-0.2 0.6 2.5 5.6 3.9 14.4 2.4 15.3-0.8 0.5-2.7 0.5-4.1 0.5-1.8 0.1-2.9 0.1-2.9 0.9 0 0.9 3.2 3.6 5.9 5.8q0.2 0.1 0.3 0.1z"/>
						</g>
					</g>
					<g id="&lt;Group&gt;">
						<path id="&lt;Path&gt;" class="s25" d="m810.8 1067.3c0 2.7 1.2 4.9 2.7 4.9 1.5 0 2.8-2.2 2.8-4.9 0-2.7-1.3-4.9-2.8-4.9-1.5 0-2.7 2.2-2.7 4.9z"/>
					</g>
					<g id="&lt;Group&gt;" style="mix-blend-mode: multiply">
						<g id="&lt;Group&gt;">
							<path id="&lt;Path&gt;" class="s29" d="m814.2 1073.8c0.9 0 3-0.4 3.7-3.8 0-0.1-0.1-0.3-0.2-0.3-0.1 0-0.3 0.1-0.3 0.2-0.6 3.3-2.6 3.5-3.5 3.5-0.1 0-0.2 0.1-0.2 0.2 0 0.1 0.1 0.2 0.2 0.2q0.1 0 0.3 0z"/>
						</g>
					</g>
					<g id="&lt;Group&gt;">
						<path id="&lt;Path&gt;" class="s25" d="m790 1067.9c0 2.7 1.2 4.9 2.7 4.9 1.5 0 2.8-2.2 2.8-4.9 0-2.7-1.3-4.9-2.8-4.9-1.5 0-2.7 2.2-2.7 4.9z"/>
					</g>
					<g id="&lt;Group&gt;" style="mix-blend-mode: multiply">
						<g id="&lt;Group&gt;">
							<path id="&lt;Path&gt;" class="s29" d="m793.3 1074.4c1 0 3.1-0.4 3.8-3.8 0-0.2-0.1-0.3-0.2-0.3-0.1 0-0.3 0.1-0.3 0.2-0.6 3.3-2.6 3.5-3.5 3.5-0.1 0-0.2 0-0.2 0.2 0 0.1 0.1 0.2 0.2 0.2q0.1 0 0.2 0z"/>
						</g>
					</g>
					<g id="&lt;Group&gt;">
						<path id="&lt;Path&gt;" class="s30" d="m817.2 1078.2c1.1 1.5 1.8 2.7 1.6 2.9-0.2 0.1-1.2-0.9-2.3-2.4-1.1-1.4-1.8-2.7-1.6-2.9 0.2-0.1 1.3 0.9 2.3 2.4z"/>
					</g>
					<g id="&lt;Group&gt;">
						<path id="&lt;Path&gt;" class="s30" d="m814.5 1078.6c1 1.4 1.8 2.7 1.6 2.8-0.2 0.2-1.3-0.9-2.3-2.3-1.1-1.5-1.8-2.8-1.7-2.9 0.2-0.2 1.3 0.9 2.4 2.4z"/>
					</g>
					<g id="&lt;Group&gt;">
						<path id="&lt;Path&gt;" class="s30" d="m811.4 1078.8c1.1 1.5 1.8 2.8 1.6 2.9-0.2 0.2-1.2-0.9-2.3-2.3-1.1-1.5-1.8-2.8-1.6-2.9 0.2-0.2 1.2 0.9 2.3 2.3z"/>
					</g>
					<g id="&lt;Group&gt;">
						<path id="&lt;Path&gt;" class="s17" d="m837.7 1087.8c0 1.9 1.5 3.4 3.3 3.4 1.8 0 3.3-1.5 3.3-3.4 0-1.8-1.5-3.3-3.3-3.3-1.8 0-3.3 1.5-3.3 3.3z"/>
					</g>
					<g id="&lt;Group&gt;" style="mix-blend-mode: multiply">
						<g id="&lt;Group&gt;">
							<path id="&lt;Path&gt;" class="s29" d="m809.8 1088.4c-8-2.5-16.8-1.9-17.5 0.7 4.3 2.4 14 0.7 17.5-0.7z"/>
						</g>
					</g>
					<g id="&lt;Group&gt;" style="mix-blend-mode: multiply">
						<g id="&lt;Group&gt;">
							<path id="&lt;Path&gt;" class="s29" d="m800.8 1098.8c1.6 0 3.3-0.3 4.5-1.1 0.2-0.1 0.3-0.4 0.2-0.6-0.2-0.1-0.4-0.2-0.6-0.1-2.9 1.9-8.2 0.5-8.8 0.2-0.2-0.2-0.4-0.1-0.6 0-0.1 0.2-0.1 0.5 0.1 0.6 0.5 0.4 2.8 1 5.2 1z"/>
						</g>
					</g>
					<g id="&lt;Group&gt;" style="mix-blend-mode: multiply">
						<g id="&lt;Group&gt;">
							<path id="&lt;Path&gt;" class="s29" d="m792.5 1089.8c3.5 9 9.8 8 17.2-1-7.2 1.6-12.4 2.5-17.2 1z"/>
						</g>
					</g>
					<g id="&lt;Group&gt;">
						<g id="&lt;Group&gt;">
							<path id="&lt;Path&gt;" class="s25" d="m798.8 1090.7c4 0 8.7-0.5 11.6-1.9 0.2-0.1 0.3-0.4 0.2-0.6-0.1-0.2-0.4-0.3-0.6-0.2-4.8 2.4-15.6 2.3-17.7 1.1-0.2-0.1-0.5 0-0.6 0.2-0.1 0.2 0 0.4 0.2 0.5 1 0.6 3.7 0.9 6.9 0.9z"/>
						</g>
					</g>
				</g>
				<g id="&lt;Group&gt;">
					<path id="&lt;Path&gt;" class="s31" d="m784.1 1288.9c0 0-26.4 23.3-30.9 23.3-4.6 0-103-80.4-137-77-34 3.4-47.6 41.9-39.6 90.6 7.9 48.7 32.2 177.2 32.2 177.2l68.5-18.7c0 0-31.7-147.2-23.8-142.7 8 4.5 77 58.9 77 58.9l99.7-13.6-4.6-90.6-23.2-10.7z"/>
				</g>
				<g id="&lt;Group&gt;" style="mix-blend-mode: multiply">
					<g id="&lt;Group&gt;">
						<path id="&lt;Path&gt;" class="s32" d="m608.3 1480.8c-0.5 0-0.9-0.3-1.1-0.8-0.1-0.5 0.2-1.1 0.8-1.3l52-15.3c0.6-0.2 1.2 0.2 1.4 0.8 0.2 0.5-0.2 1.1-0.8 1.3l-52 15.3q-0.2 0-0.3 0z"/>
					</g>
				</g>
				<g id="&lt;Group&gt;">
					<path id="&lt;Path&gt;" class="s33" d="m868.7 1288.4c0 0 37.3 63.4 18.1 109.8-19.3 46.4-139.3 52.1-150.6 79.3-11.3 27.2-45.9 210.6-45.9 210.6h-78.6c0 0 14.1-195.3 43-248 28.8-52.6 112.1-91.7 124-100.2 11.8-8.5 23.7-54.3 23.7-54.3z"/>
				</g>
				<g id="&lt;Group&gt;">
					<path id="&lt;Path&gt;" class="s25" d="m872.6 1288.9h-88.5v-8h88.5z"/>
				</g>
				<g id="&lt;Group&gt;">
					<path id="&lt;Path&gt;" class="s33" d="m833.1 1290.8h-4.2v-12.7h4.2z"/>
				</g>
				<g id="&lt;Group&gt;">
					<path id="&lt;Path&gt;" class="s33" d="m863.1 1290.8h-4.2v-12.7h4.2z"/>
				</g>
				<g id="&lt;Group&gt;" style="mix-blend-mode: multiply">
					<g id="&lt;Group&gt;">
						<path id="&lt;Path&gt;" class="s32" d="m861.3 1347.8q-0.1 0-0.3 0c-19.5-4.8-29.1-25.9-24.5-53.9 0-0.6 0.6-1 1.2-0.9 0.6 0.1 1 0.7 0.9 1.2-4.4 26.8 4.6 47 23 51.5 0.5 0.1 0.9 0.7 0.8 1.3-0.2 0.5-0.6 0.8-1.1 0.8z"/>
					</g>
				</g>
				<g id="&lt;Group&gt;" style="mix-blend-mode: multiply">
					<g id="&lt;Group&gt;">
						<path id="&lt;Path&gt;" class="s32" d="m668.3 1667.6q-0.1 0-0.2 0c-0.6-0.1-1-0.7-0.9-1.2 1.3-7.2 33-174.4 49.3-207 10.7-21.3 53.5-32.3 87.9-41.1 19.8-5.1 36.9-9.5 44.4-14.7 21.3-15 18.7-66 9.2-108.7-0.2-0.6 0.2-1.2 0.8-1.3 0.6-0.2 1.2 0.2 1.3 0.8 9.6 43.4 12.1 95.4-10.1 110.9-7.7 5.5-25 9.9-45.1 15.1-33.9 8.7-76.2 19.6-86.4 40-16.2 32.3-48.8 204.6-49.2 206.4-0.1 0.5-0.5 0.8-1 0.8z"/>
					</g>
				</g>
				<g id="&lt;Group&gt;" style="mix-blend-mode: multiply">
					<g id="&lt;Group&gt;">
						<path id="&lt;Path&gt;" class="s32" d="m616.2 1671.6c-0.6 0-1.1-0.5-1.1-1.1 0-0.6 0.5-1.1 1.1-1.1l73-0.3q0 0 0 0c0.6 0 1.1 0.5 1.1 1.1 0 0.6-0.5 1.1-1.1 1.1l-73 0.3q0 0 0 0z"/>
					</g>
				</g>
				<g id="&lt;Group&gt;">
					<g id="&lt;Group&gt;">
						<g id="&lt;Group&gt;">
							<path id="&lt;Path&gt;" class="s26" d="m926.2 1229c0 0 12.1 39.9 11.3 75.1-0.7 35.2-16.8 83.6-16.8 88.7-0.7 14.7-12.8 22.4-21.6 21.3-8.8-1.1-14.5-2.2-15.4-0.2-1.1 3.1-7 7.9-9.8 7.2-3.3 2-5.4 0.9-5.4 0.9-2.4 1.6-4.6-0.7-4.6-0.7 0 0 0-7.6 0.7-9 0.7-1.5 2.4-6.3 2.4-6.3 0 0-3.9 3.5-4 5.4-0.2 1.8 0.3 7.7-2.2 8.2-1.9-5.5-1.3-10.3-1.1-12.8 0.1-2.6 6-11.8 10.9-12.7 5-0.9 25-0.5 26.4-2.4 1.5-1.8-4.5-90.5-6.2-98.7-1.6-8.3-18.1-55.6-18.1-55.6z"/>
						</g>
						<g id="&lt;Group&gt;" style="mix-blend-mode: multiply">
							<g id="&lt;Group&gt;">
								<path id="&lt;Path&gt;" class="s29" d="m868.1 1404.1q0.3 0 0.4-0.1l2.9-3.2c0.2-0.2 0.2-0.5 0-0.7-0.2-0.2-0.6-0.2-0.8 0l-2.9 3.2c-0.2 0.2-0.1 0.5 0.1 0.7q0.1 0.1 0.3 0.1z"/>
							</g>
						</g>
						<g id="&lt;Group&gt;" style="mix-blend-mode: multiply">
							<g id="&lt;Group&gt;">
								<path id="&lt;Path&gt;" class="s29" d="m869.1 1419.5c0 0 1.1-6.9 1.2-7.7 0.1-0.5 2.2-3.6 4.2-6.4 0.1-0.2 0.1-0.5-0.2-0.7-0.2-0.2-0.5-0.1-0.7 0.1-1.2 1.8-4.2 6-4.3 6.8-0.2 0.9-1.3 7.7-1.3 7.7z"/>
							</g>
						</g>
						<g id="&lt;Group&gt;" style="mix-blend-mode: multiply">
							<g id="&lt;Group&gt;">
								<path id="&lt;Path&gt;" class="s29" d="m874 1419c0.3 0 0.5-0.2 0.5-0.4 0.1 0 1.4-4.1 1.7-4.8 0.2-0.4 2.3-3.1 4.3-5.5 0.2-0.2 0.1-0.5-0.1-0.7-0.2-0.2-0.5-0.1-0.7 0.1-1 1.2-4.2 5-4.5 5.8-0.3 0.6-1.6 4.6-1.7 4.8-0.1 0.3 0.1 0.6 0.4 0.7q0.1 0 0.1 0z"/>
							</g>
						</g>
					</g>
					<g id="&lt;Group&gt;">
						<path id="&lt;Path&gt;" class="s27" d="m877.2 1140.4c-27.2 19.5-23.8 61.1-10.2 94.2 13.5 33.1 24.6 67.1 24.6 131.6 26.3 5.1 36.5 1.7 36.5 1.7 0 0 20.4-58.5 8.5-116.3-11.9-57.7-37.4-111.2-59.4-111.2z"/>
					</g>
				</g>
				<g id="&lt;Group&gt;">
					<path id="&lt;Path&gt;" class="s25" d="m792.9 1028.7c3.6 18.4 33.8 20 38.8 20-2.1-20.9-28.3-24.8-38.8-20z"/>
				</g>
				<g id="&lt;Group&gt;">
					<g id="&lt;Group&gt;">
						<path id="&lt;Path&gt;" class="s34" d="m532.4 1128.4h151.6l26.3 111.8h-151.6z"/>
					</g>
					<g id="&lt;Group&gt;">
						<path id="&lt;Path&gt;" class="s18" d="m525.8 1128.4h151.6l26.3 111.8h-151.6z"/>
					</g>
					<g id="&lt;Group&gt;">
						<path id="&lt;Path&gt;" class="s34" d="m608.8 1192.7h19.7v-9.1c0-4.3-3.5-7.7-7.8-7.7h-19.6v9c0 4.3 3.4 7.8 7.7 7.8z"/>
					</g>
					<g id="&lt;Group&gt;">
						<path id="&lt;Path&gt;" class="s18" d="m762.7 1250.1h-209.9v-9.9h209.9z"/>
					</g>
				</g>
				<g id="&lt;Group&gt;">
					<path id="&lt;Path&gt;" class="s26" d="m528.1 1189.9c-11.1-8-15.5-35.6 2.9-41.5 0.7 0.9 1.6 8 1.6 8 0 0 27.6 2.6 28.8 11.1 4.2 4.5-0.5 9.4-0.5 9.4 0.5 5-11.6 8-11.6 8 0 0 7.4-1.4 7.1 2.2-0.2 3.5-20 6.3-28.3 2.8z"/>
				</g>
				<g id="&lt;Group&gt;" style="mix-blend-mode: multiply">
					<g id="&lt;Group&gt;">
						<path id="&lt;Path&gt;" class="s29" d="m552.7 1170c-6.3 0-15.8-0.6-22.1-4-0.2-0.1-0.2-0.3-0.2-0.4 0.1-0.2 0.3-0.2 0.5-0.2 9.9 5.4 27.8 3.8 28 3.8 0.1 0 0.3 0.1 0.3 0.3 0 0.1-0.1 0.3-0.3 0.3 0 0-2.6 0.2-6.2 0.2z"/>
					</g>
				</g>
				<g id="&lt;Group&gt;" style="mix-blend-mode: multiply">
					<g id="&lt;Group&gt;">
						<path id="&lt;Path&gt;" class="s29" d="m538.1 1180.5q-0.1 0-0.1 0c-0.1 0-0.3-0.1-0.3-0.3 0-0.2 0.1-0.3 0.3-0.3 0.1 0 10.7 0.1 21.6-3.2 0.2 0 0.4 0.1 0.4 0.2 0.1 0.2 0 0.4-0.2 0.4-10.4 3.1-20.6 3.2-21.7 3.2z"/>
					</g>
				</g>
				<g id="&lt;Group&gt;" style="mix-blend-mode: multiply">
					<g id="&lt;Group&gt;">
						<path id="&lt;Path&gt;" class="s29" d="m542.5 1186.1c-0.6 0-0.9 0-1 0-0.1-0.1-0.2-0.2-0.2-0.4 0-0.1 0.1-0.3 0.3-0.2 0 0 2.9 0.2 6.6-0.7 0.2-0.1 0.3 0 0.4 0.2 0 0.1-0.1 0.3-0.2 0.3-2.6 0.7-4.7 0.8-5.9 0.8z"/>
					</g>
				</g>
			</g>
			<g id="&lt;Group&gt;">
				<g id="&lt;Group&gt;">
					<g id="&lt;Group&gt;">
						<g id="&lt;Group&gt;">
							<path id="&lt;Path&gt;" class="s18" d="m2283.4 1626.1h168.1c9.4-10.2 7.2-28.1-9.8-34.8h-730.7c-40.8 0-92.3 28-113.2 63.1-70.9 119 13.8 242.2 126.7 242.2h717c16.7-6.3 19.4-23.7 10.7-34.1h-175.1z"/>
						</g>
					</g>
					<g id="&lt;Group&gt;">
						<g id="&lt;Group&gt;">
							<path id="&lt;Path&gt;" class="s35" d="m2494.3 1626.1h93.9c9.4-10.2 7.2-28.1-9.8-34.8h-310.7c-40.8 0-92.3 28-113.2 63.1-70.9 119 13.8 242.2 126.7 242.2h297c16.7-6.3 19.4-23.7 10.7-34.1h-100.9z"/>
						</g>
					</g>
					<g id="&lt;Group&gt;">
						<g id="&lt;Group&gt;">
							<path id="&lt;Path&gt;" class="s36" d="m2281.2 1612h291.8c-66.5 71.9-69 182-5.9 256.9l5.9 7h-291.8c-72.9 0-131.9-59.1-131.9-132 0-72.8 59-131.9 131.9-131.9z"/>
						</g>
					</g>
					<g id="&lt;Group&gt;" style="mix-blend-mode: multiply">
						<g id="&lt;Group&gt;">
							<path id="&lt;Path&gt;" class="s19" d="m2268.7 1792.3h102.3c2.8 0 5.1 2.3 5.1 5.1v6c0 2.8-2.3 5.1-5.1 5.1h-102.3c-2.8 0-5.1-2.3-5.1-5.1v-6c0-2.8 2.3-5.1 5.1-5.1z"/>
						</g>
					</g>
					<g id="&lt;Group&gt;" style="mix-blend-mode: multiply">
						<g id="&lt;Group&gt;">
							<path id="&lt;Path&gt;" class="s19" d="m2358.3 1718.8h102.2c2.9 0 5.2 2.3 5.2 5.2v6c0 2.8-2.3 5.1-5.2 5.1h-102.2c-2.9 0-5.1-2.3-5.1-5.1v-6c0-2.9 2.2-5.2 5.1-5.2z"/>
						</g>
					</g>
					<g id="&lt;Group&gt;" style="mix-blend-mode: multiply">
						<g id="&lt;Group&gt;">
							<path id="&lt;Path&gt;" class="s19" d="m2254.8 1664.8h197.9c2.8 0 5.1 2.3 5.1 5.1v6c0 2.8-2.3 5.1-5.1 5.1h-197.9c-2.8 0-5.1-2.3-5.1-5.1v-6c0-2.8 2.3-5.1 5.1-5.1z"/>
						</g>
					</g>
				</g>
				<g id="&lt;Group&gt;">
					<g id="&lt;Group&gt;">
						<path id="&lt;Path&gt;" class="s35" d="m2125.4 1829.8c-1.8 0-3.7-0.9-4.7-2.6-32.5-52.3-31.3-117.9 3.1-175.6 1.5-2.7 5-3.5 7.6-2 2.6 1.6 3.5 5 1.9 7.7-32.6 54.8-33.8 114.6-3.2 164 1.7 2.6 0.9 6-1.7 7.7-1 0.5-2 0.8-3 0.8z"/>
					</g>
				</g>
				<g id="&lt;Group&gt;">
					<path id="&lt;Path&gt;" class="s37" d="m2278.1 1830.9l-29-19.6-28.3 19.6v-128.5h57.3z"/>
				</g>
			</g>
			<g id="&lt;Group&gt;">
				<g id="&lt;Group&gt;">
					<g id="&lt;Group&gt;">
						<path id="&lt;Path&gt;" class="s10" d="m2064.4 986h7.4c10.5-0.1 20.6 4.3 27.6 12.1 7.1 7.8 10.5 18.3 9.4 28.7l-16.2 153.5c-0.6 5.7 1.2 11.5 5.1 15.8 3.9 4.3 9.5 6.7 15.3 6.7 1.7 0 3.1 1.4 3.1 3.1 0.1 1.7-1.3 3.2-3.1 3.2-7.6 0-14.8-3.2-19.9-8.8-5.1-5.6-7.6-13.1-6.8-20.7l16.2-153.4c1-8.7-1.9-17.4-7.7-23.9-5.9-6.4-14.2-10.1-23-10h-7.3c-1.8 0.1-3.2-1.3-3.2-3.1 0-1.7 1.4-3.1 3.1-3.2z"/>
					</g>
					<g id="&lt;Group&gt;">
						<path id="&lt;Path&gt;" class="s38" d="m2070.7 986l7.4-0.1c10.5 0 20.6 4.4 27.6 12.2 7.1 7.7 10.5 18.2 9.4 28.7l-16.2 153.4c-0.6 5.8 1.3 11.6 5.1 15.8 3.9 4.3 9.5 6.8 15.3 6.7 1.7 0 3.1 1.4 3.1 3.2 0.1 1.7-1.3 3.1-3.1 3.1-7.6 0.1-14.8-3.1-19.9-8.7-5.1-5.6-7.6-13.2-6.8-20.7l16.2-153.5c1-8.7-1.9-17.3-7.7-23.8-5.9-6.5-14.2-10.1-23-10.1l-7.3 0.1c-1.8 0-3.2-1.4-3.2-3.1 0-1.8 1.4-3.2 3.1-3.2z"/>
					</g>
					<g id="&lt;Group&gt;">
						<path id="&lt;Path&gt;" class="s10" d="m2044 1035.4l40.7-0.3 3.4 449-40.7 0.3z"/>
					</g>
					<g id="&lt;Group&gt;">
						<path id="&lt;Path&gt;" class="s38" d="m2066.9 1553.3h2.9l18.3-69.2-40.7 0.3z"/>
					</g>
					<g id="&lt;Group&gt;">
						<path id="&lt;Path&gt;" class="s10" d="m2079 1518.5c-3.7-1-7.6-1.6-11.6-1.6-3.6 0.1-7 0.6-10.4 1.5l9.9 34.9h2.9z"/>
					</g>
					<g id="&lt;Group&gt;">
						<path id="&lt;Path&gt;" class="s38" d="m2038.2 1012l50.6-0.4 0.4 56.1-50.5 0.4z"/>
					</g>
					<g id="&lt;Group&gt;">
						<path id="&lt;Path&gt;" class="s38" d="m2047.9 1011.9l31.2-0.2-0.3-42.4-31.2 0.3z"/>
					</g>
				</g>
				<g id="&lt;Group&gt;">
					<g id="&lt;Group&gt;">
						<path id="&lt;Path&gt;" class="s26" d="m2026.7 1803.4l3.4 27.9c-6.5 15-4.8 34.4-4.8 34.4l113.5 5.2c-11.2-23.6-64.4-27.7-69.5-38.9-5.1-11.3-6.1-44-6.1-44z"/>
					</g>
					<g id="&lt;Group&gt;">
						<path id="&lt;Path&gt;" class="s25" d="m2050.9 1833.7c0-4 3.6-18.2 14-22 1 7.9 2.4 15.8 4.4 20.3 5.1 11.2 58.3 15.3 69.5 38.9l-113.5-5.2c0 0-1.7-19.4 4.8-34.4 0 0 20.1 9.6 20.8 2.4z"/>
					</g>
					<g id="&lt;Group&gt;">
						<path id="&lt;Path&gt;" class="s39" d="m2136 1866.3q1.7 2.2 2.8 4.6l-113.5-5.2c0 0-0.1-1.7-0.2-4.5z"/>
					</g>
					<g id="&lt;Group&gt;">
						<path id="&lt;Path&gt;" class="s39" d="m2060.8 1837.1c0.2 0 0.5-0.2 0.6-0.4 0-0.1 1.9-4.6 5.3-5.9q2.1-0.8 4.4 0.3c0.3 0.1 0.7 0 0.8-0.4 0.2-0.3 0.1-0.7-0.3-0.8q-2.8-1.4-5.4-0.3c-3.9 1.5-5.9 6.4-6 6.6-0.2 0.3 0 0.7 0.3 0.8q0.2 0.1 0.3 0.1z"/>
					</g>
					<g id="&lt;Group&gt;">
						<path id="&lt;Path&gt;" class="s39" d="m2071.2 1845.1c0.2 0 0.5-0.2 0.6-0.4 0-0.1 1.9-4.6 5.3-5.9q2.1-0.8 4.4 0.3c0.3 0.1 0.7 0 0.8-0.3 0.2-0.4 0-0.8-0.3-0.9q-2.8-1.3-5.4-0.3c-3.9 1.5-5.9 6.4-6 6.6-0.2 0.3 0 0.7 0.3 0.8q0.2 0.1 0.3 0.1z"/>
					</g>
					<g id="&lt;Group&gt;">
						<path id="&lt;Path&gt;" class="s39" d="m2088.6 1850.9c0.2 0 0.5-0.2 0.6-0.4 0-0.1 1.9-4.6 5.2-5.9q2.1-0.8 4.4 0.3c0.4 0.1 0.8 0 0.9-0.4 0.2-0.3 0-0.7-0.3-0.8q-2.8-1.4-5.4-0.3c-3.9 1.5-6 6.4-6 6.6-0.2 0.3 0 0.7 0.3 0.8q0.1 0.1 0.3 0.1z"/>
					</g>
				</g>
				<g id="&lt;Group&gt;">
					<path id="&lt;Path&gt;" class="s27" d="m1853.8 1316.7c28.8 10.1 124.3 67.6 174.9-28l18.7 18-3.5 6.9c0 50.6-29.1 119.1-197.3 117.8-42.3-61 7.2-114.7 7.2-114.7z"/>
				</g>
				<g id="&lt;Group&gt;">
					<path id="&lt;Path&gt;" class="s31" d="m1887.4 1459.7c80.1-55.8 137.4-45.7 179.8-16.1 42.5 29.5 56.4 107.1-2.7 197.6l-8.3 11.1c0 0-49-29.6-49-33.3 27.7-86.8 8.3-130.2-70.2-81.2-78.4 48.9-91.4-40.7-91.4-40.7 0 0 2.8-21.2 5.6-25.8 2.7-4.6 36.2-11.6 36.2-11.6z"/>
				</g>
				<g id="&lt;Group&gt;">
					<path id="&lt;Path&gt;" class="s33" d="m1766.2 1530.4c0 23.5 7.4 56.3 70.2 60 78.7 4.6 177.3 48 175.4 221.6l63.8 1c12-90.5 24-232.7-159.8-293.7-8.3-25.8-58.2-44.3-58.2-44.3h-53.5z"/>
				</g>
				<g id="&lt;Group&gt;">
					<path id="&lt;Path&gt;" class="s20" d="m1853.8 1316.7c-26.3-11-40.8-13.1-62.3-11.4-21.5 1.7-44 18-53 62.3-7.8 38.5-14.8 125.4 23.8 147.3 4.9 2.8 1.5 8.6 4.2 11.1 77.6-24.2 120.9-66.3 120.9-66.3-4.4 0.5-4.1-3.3-5.6-6 9-17.3-7-23.7-10.6-53.1-3.4-28.3 1.5-66.9-17.4-83.9z"/>
				</g>
				<g id="&lt;Group&gt;">
					<g id="&lt;Group&gt;">
						<path id="&lt;Path&gt;" class="s25" d="m1818.8 1211.1c-5.5-0.1-7 3.8-7 3.8-5.4-5.6-8.4-0.1-5.4 3.3-6.6-1.4-1.8 4.5-1.4 4.8-5.9 5-5.5 39.3-5.5 39.3l39.3 5.5c0 0 18.8-15 19.2-14.8 8.3-3.4 11.4-12.8 7.5-19.7 10.7-4.9 4-28.8-16.7-26.9 0.1-9.2-27.8-16.5-30 4.7z"/>
					</g>
					<g id="&lt;Group&gt;">
						<path id="&lt;Path&gt;" class="s26" d="m1801 1270.8l2.7-17.3c0 0 2.6-1.3 4.1-6.5 7.4 1.6 15.3-6.3 10.2-22.5 2.3 1.2 7.6 0.1 8.6-6.4-0.7 14.3 14.8 26.5 34.9 16.8 0 0-3.8 35.3-6.7 47.2-2.8 11.9-11.3 16.1-19.4 17.5 0 0-3.3 12.1-2.9 14-9.7 7.6-28 0.2-38.9-8.4 1-1.1 6.7-17.9 7.4-34.4z"/>
					</g>
					<path id="&lt;Mesh&gt;" class="s40" d="m1840.8 1272.3c0.7 1.2 2.2 2.3 3.6 2.4 2.1-0.8 2.7-2.8 2.8-4.1-1.3-0.2-5.6-0.3-6.2-0.7-0.8 0.5-0.7 1.4-0.2 2.4zm0.2-2.4c0.6 0.4 4.9 0.5 6.2 0.7 0.1-0.5 0-0.9-0.1-1.1-1.3-0.1-4.2 0.3-4.9 0q-0.8 0.1-1.2 0.4zm3.4 4.8q0.5 0 1-0.1c2.3-0.7 2.8-2.6 2.7-3.8-0.2-0.1-0.6-0.2-0.9-0.2-0.1 1.3-0.7 3.3-2.8 4.1zm2.8-4.1c0.3 0 0.7 0.1 0.9 0.2-0.1-0.5-0.2-0.8-0.3-1q-0.2-0.2-0.7-0.3c0.1 0.2 0.2 0.6 0.1 1.1z"/>
					<g id="&lt;Group&gt;">
						<path id="&lt;Path&gt;" class="s26" d="m1805.8 1267.4c-1.5 4.1-6.1 6.1-10.1 4.6-4.1-1.6-6.1-6.1-4.5-10.2 1.5-4 6.1-6 10.1-4.5 4.1 1.6 6.1 6.1 4.5 10.1z"/>
					</g>
					<g id="&lt;Group&gt;">
						<path id="&lt;Path&gt;" class="s41" d="m1847.2 1278.2c-2.1 7.4-12.2 18.5-22.7-1.3 6.1 2.2 14.9 4.2 22.7 1.3z"/>
					</g>
					<g id="&lt;Group&gt;">
						<path id="&lt;Path&gt;" class="s17" d="m1846.8 1278.3c-1.8 3.7-9.9 8.2-20.7-0.5 8.2 1.8 16.1 2.6 20.7 0.5z"/>
					</g>
					<g id="&lt;Group&gt;" style="mix-blend-mode: multiply">
						<g id="&lt;Group&gt;">
							<path id="&lt;Path&gt;" class="s29" d="m1826.6 1263.9c-1.8-0.7-3.4-2.3-3.6-4.6 0-0.2 0.2-0.3 0.4-0.3 0.1-0.1 0.3 0.1 0.3 0.3 0.2 2.6 2.6 4.2 4.7 4.3 0.2 0 0.3 0.2 0.3 0.4 0 0.2-0.2 0.3-0.4 0.3q-0.8-0.1-1.7-0.4z"/>
						</g>
					</g>
					<g id="&lt;Group&gt;">
						<g id="&lt;Group&gt;">
							<path id="&lt;Path&gt;" class="s25" d="m1817.1 1247.5q0 0-0.1 0c-0.1-0.1-0.1-0.3 0-0.5 3.6-4.8 11.5-5.9 16.3-3.7 0.1 0.1 0.2 0.3 0.1 0.4-0.1 0.2-0.3 0.3-0.4 0.2-4.6-2-12.1-1.1-15.5 3.5-0.1 0.2-0.2 0.2-0.4 0.1z"/>
						</g>
					</g>
					<g id="&lt;Group&gt;">
						<g id="&lt;Group&gt;">
							<path id="&lt;Path&gt;" class="s25" d="m1857.4 1251.9q-0.1 0-0.2-0.2c-1-3-5.3-5-8.6-4.1-0.2 0.1-0.4 0-0.5-0.2 0-0.2 0.1-0.4 0.3-0.4 3.6-1.1 8.3 1.2 9.5 4.5 0 0.2 0 0.4-0.2 0.5q-0.1 0-0.3-0.1z"/>
						</g>
					</g>
					<g id="&lt;Group&gt;">
						<g id="&lt;Group&gt;">
							<path id="&lt;Path&gt;" class="s25" d="m1845.4 1274.8q-0.1-0.1-0.1-0.2c-0.1-0.2 0-0.4 0.2-0.5 1.3-0.5 1.8-1.5 2-2.3 0.3-0.9 0.1-1.6 0-1.7-0.2-0.3-2-0.2-3-0.2-0.7 0-1.3 0-1.8 0q-0.6 0-1-1c-1-2.5-0.9-11.6 5-17.6 0.1-0.1 0.3-0.1 0.5 0 0.1 0.1 0.1 0.4 0 0.5-5.4 5.5-5.9 14.3-4.9 16.9 0.2 0.4 0.4 0.5 0.4 0.5 0.5 0 1.1 0 1.7 0 2 0 3.3 0 3.7 0.5 0.3 0.4 0.4 1.4 0.1 2.3-0.2 0.8-0.8 2.2-2.5 2.8q-0.1 0-0.3 0z"/>
						</g>
					</g>
					<g id="&lt;Group&gt;">
						<g id="&lt;Group&gt;">
							<path id="&lt;Path&gt;" class="s25" d="m1826.4 1277.9q-1.2-0.4-2.3-1c-0.1-0.1-0.2-0.3-0.1-0.5 0.1-0.1 0.3-0.2 0.4-0.1 7.8 4.1 20.5 3.6 23.4 1 0.1-0.1 0.3-0.1 0.4 0.1 0.2 0.1 0.2 0.3 0 0.4-2.7 2.5-13.8 3.2-21.8 0.1z"/>
						</g>
					</g>
					<g id="&lt;Group&gt;" style="mix-blend-mode: multiply">
						<g id="&lt;Group&gt;">
							<path id="&lt;Path&gt;" class="s29" d="m1800.3 1269.5c-2.5-1-3.1-2.3-3.2-3.1-0.1-0.9 0.4-1.9 1.3-2.4 0.8-0.5 2.2-0.8 3.7-0.1-0.7-2.6-2.7-4.2-4.4-4.6-1.5-0.4-3 0.1-4 1.3-0.1 0.2-0.3 0.2-0.5 0.1-0.1-0.2-0.1-0.4 0-0.5 1.1-1.5 2.9-2 4.7-1.6 2.5 0.7 4.5 3 5 5.9 0.1 0.1 0 0.3-0.1 0.4-0.1 0-0.3 0-0.4 0-1.5-1-2.9-0.8-3.7-0.3-0.6 0.4-1 1-0.9 1.7 0.1 1.2 1.4 2.2 3.4 2.8 0.2 0.1 0.3 0.3 0.2 0.4 0 0.2-0.2 0.3-0.4 0.3q-0.3-0.2-0.7-0.3z"/>
						</g>
					</g>
					<g id="&lt;Group&gt;" style="mix-blend-mode: multiply">
						<g id="&lt;Group&gt;">
							<path id="&lt;Path&gt;" class="s29" d="m1831.3 1290.7q-0.3-0.1-0.6-0.2c-0.2-0.1-0.3-0.3-0.2-0.5 0.1-0.2 0.3-0.2 0.4-0.2 5 2.2 10.1 0.9 10.1 0.9 0.2 0 0.4 0.1 0.5 0.3 0 0.1-0.1 0.3-0.3 0.4-0.2 0-4.9 1.2-9.9-0.7z"/>
						</g>
					</g>
					<g id="&lt;Group&gt;" style="mix-blend-mode: multiply">
						<g id="&lt;Group&gt;">
							<path id="&lt;Path&gt;" class="s29" d="m1822.1 1298.1c-11.8-4.6-16.6-15.6-16.9-25.3 0-0.1 0.1-0.3 0.3-0.3 0.2 0 0.4 0.1 0.4 0.3 0.4 12 7.8 26.2 27.4 26.7 0.2 0 0.3 0.1 0.3 0.3 0 0.2-0.1 0.4-0.3 0.3-4.3-0.1-8-0.8-11.2-2z"/>
						</g>
					</g>
					<g id="&lt;Group&gt;">
						<path id="&lt;Path&gt;" class="s25" d="m1830.5 1258.1c-0.4 2.4-1.8 4.2-3.2 4-1.4-0.2-2.1-2.4-1.8-4.8 0.4-2.5 1.8-4.3 3.2-4.1 1.4 0.3 2.1 2.4 1.8 4.9z"/>
					</g>
					<g id="&lt;Group&gt;" style="mix-blend-mode: multiply">
						<g id="&lt;Group&gt;">
							<path id="&lt;Path&gt;" class="s29" d="m1847.9 1266.9c-1.8-0.7-3.4-2.3-3.6-4.6 0-0.2 0.1-0.3 0.3-0.3 0.2 0 0.4 0.1 0.4 0.3 0.2 2.6 2.5 4.2 4.7 4.3 0.1 0 0.3 0.2 0.3 0.4 0 0.2-0.2 0.3-0.4 0.3q-0.8 0-1.7-0.4z"/>
						</g>
					</g>
					<g id="&lt;Group&gt;">
						<path id="&lt;Path&gt;" class="s25" d="m1851.7 1261.1c-0.4 2.4-1.8 4.2-3.1 4-1.4-0.2-2.2-2.3-1.8-4.8 0.4-2.4 1.8-4.3 3.2-4 1.3 0.2 2.1 2.3 1.7 4.8z"/>
					</g>
					<g id="&lt;Group&gt;">
						<path id="&lt;Path&gt;" class="s17" d="m1830.7 1285.3c5.3 4.8 10.2 2.6 13.3-1.1-5.2-0.5-10.5 0.4-13.3 1.1z"/>
					</g>
					<g id="&lt;Group&gt;" style="mix-blend-mode: multiply">
						<g id="&lt;Group&gt;">
							<path id="&lt;Path&gt;" class="s42" d="m1817.4 1267.8c-0.3 0.2-1.3-1.4-2.3-3.5-0.9-2.1-1.4-3.9-1-4 0.3-0.2 1.3 1.4 2.3 3.5 0.9 2.1 1.4 3.9 1 4z"/>
						</g>
					</g>
					<g id="&lt;Group&gt;" style="mix-blend-mode: multiply">
						<g id="&lt;Group&gt;">
							<path id="&lt;Path&gt;" class="s42" d="m1820.8 1269.6c-0.4 0.2-1.4-1.4-2.3-3.5-1-2.1-1.5-3.9-1.1-4 0.3-0.2 1.3 1.4 2.3 3.5 0.9 2 1.4 3.9 1.1 4z"/>
						</g>
					</g>
					<g id="&lt;Group&gt;" style="mix-blend-mode: multiply">
						<g id="&lt;Group&gt;">
							<path id="&lt;Path&gt;" class="s42" d="m1824.6 1271.1c-0.4 0.1-1.4-1.4-2.3-3.5-1-2.1-1.4-3.9-1.1-4.1 0.3-0.1 1.4 1.4 2.3 3.5 0.9 2.1 1.4 3.9 1.1 4.1z"/>
						</g>
					</g>
				</g>
				<g id="&lt;Group&gt;">
					<path id="&lt;Path&gt;" class="s27" d="m1759.8 1321.7c33.2 15.7 22.1 65.6-8.4 110.8-30.4 45.3 4.7 131.1 4.7 131.1l-30.5 12-2.8-8.3c-51.7-62.8-59.1-193 37-245.6z"/>
				</g>
				<g id="&lt;Group&gt;">
					<g id="&lt;Group&gt;">
						<path id="&lt;Path&gt;" class="s26" d="m1714.5 1581.9c6.8-16.4 40.4-30.3 53.3-8.8-1 1.2-9.7 4.5-9.7 4.5 0 0 5 35.6-5.4 39.6-4.4 6.7-12.1 2.3-12.1 2.3-6.1 2-13.5-12.3-13.5-12.3 0 0 3.9 8.9-0.6 9.6-4.5 0.8-14-23.4-12-34.9z"/>
					</g>
					<g id="&lt;Group&gt;" style="mix-blend-mode: multiply">
						<g id="&lt;Group&gt;">
							<path id="&lt;Path&gt;" class="s29" d="m1746.9 1607c-1.8-7.9-3.9-20.1-1.5-29.1 0.1-0.2 0.3-0.4 0.5-0.3 0.2 0.1 0.3 0.3 0.3 0.5-3.8 14.1 3.5 36.3 3.6 36.5 0.1 0.2 0 0.4-0.2 0.5-0.3 0.1-0.5-0.1-0.5-0.3-0.1 0-1.1-3.2-2.2-7.8z"/>
						</g>
					</g>
					<g id="&lt;Group&gt;" style="mix-blend-mode: multiply">
						<g id="&lt;Group&gt;">
							<path id="&lt;Path&gt;" class="s29" d="m1729.3 1591.7q0-0.1 0-0.1c-0.1-0.2 0.1-0.4 0.3-0.4 0.2-0.1 0.4 0 0.4 0.2 0.1 0.2 3.1 13.6 10.5 26.4 0.1 0.2 0 0.4-0.2 0.5-0.2 0.2-0.4 0.1-0.5-0.1-7-12.3-10.2-25-10.5-26.5z"/>
						</g>
					</g>
					<g id="&lt;Group&gt;" style="mix-blend-mode: multiply">
						<g id="&lt;Group&gt;">
							<path id="&lt;Path&gt;" class="s29" d="m1723.6 1598.9c-0.2-0.7-0.3-1.1-0.3-1.2 0-0.2 0.1-0.4 0.3-0.4 0.3-0.1 0.5 0.1 0.5 0.3 0 0 0.6 3.8 2.8 8.2 0.1 0.1 0.1 0.4-0.1 0.5-0.2 0.1-0.4 0-0.5-0.2-1.6-3-2.4-5.7-2.7-7.2z"/>
						</g>
					</g>
				</g>
				<g id="&lt;Group&gt;">
					<path id="&lt;Path&gt;" class="s26" d="m2047.4 1306.7c17.5-9 10.6-29.8 12.5-41.3 1.8-11.6 5.1-13.4 2.7-16.8-2.6-3.8-11.5 4.8-12.9 9.8-1.4 5.1-1.8 6.2-3.6 6.2-1.9 0-1-31.6-1-31.6-15.3 16.7-16.4 55.7-16.4 55.7z"/>
				</g>
				<g id="&lt;Group&gt;">
					<path id="&lt;Path&gt;" class="s25" d="m1887.4 1459.7c-1.5-1.4-3.4-1.7-5.3-6.4 0 0-59.7 51.2-117.9 67.2 0.9 5.6 2 9.9 2 9.9 55.8-18.2 101.6-49.7 121.2-70.7z"/>
				</g>
				<g id="&lt;Group&gt;">
					<path id="&lt;Path&gt;" class="s33" d="m1850.4 1492.1l-3.4 2.5-8.8-11.6 3.4-2.5z"/>
				</g>
				<g id="&lt;Group&gt;">
					<path id="&lt;Path&gt;" class="s33" d="m1779.2 1528.4l-3.8 1.7-6-13.3 3.8-1.7z"/>
				</g>
				<g id="&lt;Group&gt;" style="mix-blend-mode: multiply">
					<g id="&lt;Group&gt;">
						<path id="&lt;Path&gt;" class="s43" d="m1822.6 1555.5q0.2 0 0.3-0.1c13.3-11.1 13.5-28.4 0.7-44.1-0.2-0.3-0.6-0.3-0.8-0.1-0.2 0.2-0.3 0.5-0.1 0.7 12.5 15.3 12.3 32-0.5 42.7-0.2 0.1-0.2 0.5 0 0.7q0.1 0.2 0.4 0.2z"/>
					</g>
				</g>
				<g id="&lt;Group&gt;" style="mix-blend-mode: multiply">
					<g id="&lt;Group&gt;">
						<path id="&lt;Path&gt;" class="s43" d="m2042.1 1795c0.3 0 0.5-0.2 0.5-0.5 0.1-0.7 8.4-80.4-38.4-147-45.2-64.3-108.7-75.4-146.6-82.1q-2.8-0.5-5.5-1c-36.4-6.5-45.4-12.4-60.2-39.7-0.1-0.3-0.4-0.4-0.7-0.2-0.2 0.1-0.3 0.4-0.2 0.7 14.8 27.4 24.5 33.8 60.9 40.3q2.7 0.5 5.5 0.9c37.8 6.7 101 17.8 145.9 81.7 46.6 66.3 38.4 145.5 38.3 146.3-0.1 0.3 0.2 0.6 0.4 0.6q0.1 0 0.1 0z"/>
					</g>
				</g>
				<g id="&lt;Group&gt;" style="mix-blend-mode: multiply">
					<g id="&lt;Group&gt;">
						<path id="&lt;Path&gt;" class="s43" d="m2074.9 1798.4c0.3 0 0.5-0.3 0.5-0.6 0-0.3-0.2-0.5-0.5-0.5l-58.9-1.7q0 0 0 0c-0.3 0-0.5 0.3-0.5 0.5-0.1 0.3 0.2 0.6 0.5 0.6l58.9 1.7q0 0 0 0z"/>
					</g>
				</g>
				<g id="&lt;Group&gt;" style="mix-blend-mode: multiply">
					<g id="&lt;Group&gt;">
						<path id="&lt;Path&gt;" class="s43" d="m1817.9 1339.6q0 0 0.1 0 0.2-0.1 0.3-0.3l9.2-19.9 19.8 16.7c0.2 0.2 0.5 0.2 0.7 0 0.2-0.3 0.2-0.6-0.1-0.8l-20.2-17.2q-0.2-0.2-0.5-0.1-0.3 0-0.4 0.3l-9.2 20c-3.7-2.2-26.6-16-32.3-27.5-0.2-0.3-0.5-0.4-0.7-0.3-0.3 0.1-0.4 0.5-0.3 0.7 6.4 12.8 32.2 27.7 33.3 28.3q0.1 0.1 0.3 0.1z"/>
					</g>
				</g>
			</g>
		</g>
	</g>
</svg>